<svg width="210mm" height="215mm" version="1.1" viewBox="0 0 210 215" xmlns="http://www.w3.org/2000/svg">
 <defs>
  <clipPath id="clipPath55">
   <path d="m138.55 141.55v-151.94c0.15246-10.071-9.1582-9.8667-9.1582-9.8667h-88.39s-8.9721-1.1052-9.5953 10.338v150.9z" style="display:none;fill:none;stroke-width:1.8448;stroke:#fff"/>
   <path class="powerclip" d="m75.164-57.858h57.038v55.293h-57.038zm63.388 199.4v-151.94c0.15246-10.071-9.1582-9.8667-9.1582-9.8667h-88.39s-8.9721-1.1052-9.5953 10.338v150.9z" style="fill:none;stroke-width:1.8448;stroke:#fff"/>
  </clipPath>
 </defs>
 <path d="m160.76 213.87v-155.34c0.17735-10.296-10.654-10.087-10.654-10.087h-102.83s-10.437-1.13-11.162 10.569v154.27z" style="fill:none;stroke-width:3.6214;stroke:#fff"/>
 <g transform="matrix(1.0038 0 0 .89692 -.37252 22.043)" style="stroke-width:1.8">
  <path d="m109.41 213.39v-45.786c0.0343-3.0347-2.0546-2.9732-2.0546-2.9732h-19.83s-2.0128-0.33304-2.1526 3.115v45.47z" style="fill:none;stroke-width:1.8;stroke:#fff"/>
  <ellipse cx="90.489" cy="190.48" rx="1.2142" ry="1.1041" style="fill:#fff;stroke-linecap:round;stroke-linejoin:round;stroke-width:1.8;stroke:#fff"/>
 </g>
 <g transform="matrix(.95239 0 0 .85635 2.163 28.869)" style="stroke-width:1.8">
  <g transform="translate(13.578 -3.361)" style="stroke-width:1.8">
   <rect x="111.41" y="129.12" width="24.645" height="24.645" style="fill:none;stroke-linecap:round;stroke-linejoin:round;stroke-width:1.8;stroke:#fff"/>
   <path d="m123.73 129.12v24.645" style="fill:none;stroke-width:1.8;stroke:#fff"/>
   <path d="m136.05 141.44h-24.645" style="fill:none;stroke-width:1.8;stroke:#fff"/>
  </g>
  <g transform="translate(-23.716 -3.2383)" style="stroke-width:1.8">
   <rect x="111.41" y="129.12" width="24.645" height="24.645" style="fill:none;stroke-linecap:round;stroke-linejoin:round;stroke-width:1.8;stroke:#fff"/>
   <path d="m123.73 129.12v24.645" style="fill:none;stroke-width:1.8;stroke:#fff"/>
   <path d="m136.05 141.44h-24.645" style="fill:none;stroke-width:1.8;stroke:#fff"/>
  </g>
  <g transform="translate(-61.011 -3.4838)" style="stroke-width:1.8">
   <rect x="111.41" y="129.12" width="24.645" height="24.645" style="fill:none;stroke-linecap:round;stroke-linejoin:round;stroke-width:1.8;stroke:#fff"/>
   <path d="m123.73 129.12v24.645" style="fill:none;stroke-width:1.8;stroke:#fff"/>
   <path d="m136.05 141.44h-24.645" style="fill:none;stroke-width:1.8;stroke:#fff"/>
  </g>
 </g>
 <g transform="matrix(.95239 0 0 .85635 1.9292 -4.7332)" style="stroke-width:1.8">
  <g transform="translate(13.578 -3.361)" style="stroke-width:1.8">
   <rect x="111.41" y="129.12" width="24.645" height="24.645" style="fill:none;stroke-linecap:round;stroke-linejoin:round;stroke-width:1.8;stroke:#fff"/>
   <path d="m123.73 129.12v24.645" style="fill:none;stroke-width:1.8;stroke:#fff"/>
   <path d="m136.05 141.44h-24.645" style="fill:none;stroke-width:1.8;stroke:#fff"/>
  </g>
  <g transform="translate(-23.716 -3.2383)" style="stroke-width:1.8">
   <rect x="111.41" y="129.12" width="24.645" height="24.645" style="fill:none;stroke-linecap:round;stroke-linejoin:round;stroke-width:1.8;stroke:#fff"/>
   <path d="m123.73 129.12v24.645" style="fill:none;stroke-width:1.8;stroke:#fff"/>
   <path d="m136.05 141.44h-24.645" style="fill:none;stroke-width:1.8;stroke:#fff"/>
  </g>
  <g transform="translate(-61.011 -3.4838)" style="stroke-width:1.8">
   <rect x="111.41" y="129.12" width="24.645" height="24.645" style="fill:none;stroke-linecap:round;stroke-linejoin:round;stroke-width:1.8;stroke:#fff"/>
   <path d="m123.73 129.12v24.645" style="fill:none;stroke-width:1.8;stroke:#fff"/>
   <path d="m136.05 141.44h-24.645" style="fill:none;stroke-width:1.8;stroke:#fff"/>
  </g>
 </g>
 <g transform="matrix(.95239 0 0 .85635 1.6954 -38.126)" style="stroke-width:1.8">
  <g transform="translate(13.578 -3.361)" style="stroke-width:1.8">
   <rect x="111.41" y="129.12" width="24.645" height="24.645" style="fill:none;stroke-linecap:round;stroke-linejoin:round;stroke-width:1.8;stroke:#fff"/>
   <path d="m123.73 129.12v24.645" style="fill:none;stroke-width:1.8;stroke:#fff"/>
   <path d="m136.05 141.44h-24.645" style="fill:none;stroke-width:1.8;stroke:#fff"/>
  </g>
  <g transform="translate(-23.716 -3.2383)" style="stroke-width:1.8">
   <rect x="111.41" y="129.12" width="24.645" height="24.645" style="fill:none;stroke-linecap:round;stroke-linejoin:round;stroke-width:1.8;stroke:#fff"/>
   <path d="m123.73 129.12v24.645" style="fill:none;stroke-width:1.8;stroke:#fff"/>
   <path d="m136.05 141.44h-24.645" style="fill:none;stroke-width:1.8;stroke:#fff"/>
  </g>
  <g transform="translate(-61.011 -3.4838)" style="stroke-width:1.8">
   <rect x="111.41" y="129.12" width="24.645" height="24.645" style="fill:none;stroke-linecap:round;stroke-linejoin:round;stroke-width:1.8;stroke:#fff"/>
   <path d="m123.73 129.12v24.645" style="fill:none;stroke-width:1.8;stroke:#fff"/>
   <path d="m136.05 141.44h-24.645" style="fill:none;stroke-width:1.8;stroke:#fff"/>
  </g>
 </g>
 <g transform="matrix(1.1611 0 0 1.1611 -.23968 70.504)" clip-path="url(#clipPath55)" style="stroke-width:2.5359">
  <path transform="matrix(.47093 .88217 -.53926 .84214 0 0)" d="m83.404-122.31a6.6025 17.63 0 0 1-6.6025 17.63 6.6025 17.63 0 0 1-6.6025-17.63 6.6025 17.63 0 0 1 6.6025-17.63 6.6025 17.63 0 0 1 6.6025 17.63z" style="fill:none;stroke-linecap:round;stroke-linejoin:round;stroke-width:2.7152;stroke:#fff"/>
  <path d="m111.63-50.096s9.0773 15.826 5.1847 22.001c-4.8064 7.624-18.123 10.191-23.702 8.4928" style="fill:none;stroke-width:2.5359;stroke:#fff"/>
  <path d="m112.26-46.11-24.756-1.2722" style="fill:#fff;stroke-linecap:round;stroke-linejoin:round;stroke-width:2.5359;stroke:#fff"/>
  <path d="m98.304-21.205-14.473-19.452" style="fill:#fff;stroke-linecap:round;stroke-linejoin:round;stroke-width:2.5359;stroke:#fff"/>
  <path d="m109.65-36.039-22.741-9.1227" style="fill:#fff;stroke-linecap:round;stroke-linejoin:round;stroke-width:2.5359;stroke:#fff"/>
  <path d="m104.84-29.398-18.894-12.931" style="fill:#fff;stroke-linecap:round;stroke-linejoin:round;stroke-width:2.5359;stroke:#fff"/>
  <path transform="matrix(.97279 .2317 -.49916 .86651 0 0)" d="m56.222-65.413a2.1733 5.9496 0 0 1-2.1733 5.9496 2.1733 5.9496 0 0 1-2.1733-5.9496 2.1733 5.9496 0 0 1 2.1733-5.9496 2.1733 5.9496 0 0 1 2.1733 5.9496z" style="fill:#f2f2f2;stroke-linecap:round;stroke-linejoin:round;stroke-width:2.5901;stroke:#fff"/>
  <path d="m117.28-27.468-9.0621 17.338" style="fill:#f2f2f2;stroke-linecap:round;stroke-linejoin:round;stroke-width:2.5359;stroke:#fff"/>
  <path d="m117.53-28.088-0.36777 14.711" style="fill:#f2f2f2;stroke-linecap:round;stroke-linejoin:round;stroke-width:2.5359;stroke:#fff"/>
  <path d="m117.71-29.056 8.2272 20.224" style="fill:#f2f2f2;stroke-linecap:round;stroke-linejoin:round;stroke-width:2.5359;stroke:#fff"/>
 </g>
</svg>
