<svg width="210mm" height="210mm" version="1.1" viewBox="0 0 210 210" xmlns="http://www.w3.org/2000/svg">
 <defs>
  <clipPath id="clipPath16259">
   <path d="m213.05 64.923-88.731-27.115-37.641 126.2 91.527 23.461z" style="display:none;fill:none;stroke-width:.665;stroke:#4f56e1"/>
   <path class="powerclip" d="m54.844 40.953h214.11v167.39h-214.11zm158.21 23.97-88.731-27.115-37.641 126.2 91.527 23.461z" style="fill:none;stroke-width:.665;stroke:#4f56e1"/>
  </clipPath>
 </defs>
 <g transform="matrix(.92321 0 0 .92321 11.418 .44657)">
  <g transform="rotate(-16.158 102.47 278.94)" clip-path="url(#clipPath16259)">
   <g transform="rotate(24.703 94.744 344.04)">
    <path x="60.749184" y="46.857868" width="82.225937" height="118.8037" ry="0" d="m60.749 46.858h82.226v118.8h-82.226z" style="fill:none;stroke-linecap:round;stroke-width:1.8102;stroke:#fff"/>
    <path d="m69.858 60.139c0.15828 1.3307 0.91445 2.5787 2.0206 3.3351s2.5436 1.0081 3.841 0.67271c1.2966-0.33516 2.381-1.1979 3.4376-2.0206s2.18-1.6509 3.4968-1.8949c1.0205-0.18909 2.0839-0.0061 3.0515 0.3691 0.96763 0.37521 1.8516 0.93573 2.7079 1.5221s1.6944 1.2037 2.601 1.7089c0.9066 0.50515 1.893 0.89862 2.9263 0.99568 1.1138 0.10462 2.2378-0.13995 3.2813-0.54312 1.0435-0.40317 2.0185-0.96182 2.9926-1.5119 0.97407-0.55008 1.9574-1.0963 3.0111-1.472 1.0537-0.37565 2.19-0.57606 3.2967-0.41314 0.93189 0.13718 1.8111 0.52643 2.62 1.0091 0.80889 0.48263 1.5566 1.0596 2.3212 1.6096 0.76463 0.55007 1.5538 1.0777 2.4202 1.4472 0.8664 0.36955 1.8201 0.57611 2.7549 0.46015 0.74654-0.09261 1.4581-0.38786 2.0971-0.78486 0.63897-0.397 1.2099-0.89436 1.751-1.4169 1.0823-1.0451 2.0778-2.2156 3.3758-2.9763 0.98331-0.57624 2.1168-0.89351 3.2564-0.91146 1.1396-0.01795 2.2825 0.26347 3.2835 0.80846 1.001 0.54498 1.8576 1.3523 2.461 2.3192s0.95204 2.0912 1.0017 3.2298" style="fill:none;stroke-dashoffset:5.65;stroke-width:.565;stroke:#fff"/>
    <path d="m69.858 79.61c0.15828 1.3307 0.91445 2.5787 2.0206 3.3351s2.5436 1.0081 3.841 0.67271c1.2966-0.33516 2.381-1.1979 3.4376-2.0206s2.18-1.6509 3.4968-1.8949c1.0205-0.18909 2.0839-0.0061 3.0515 0.3691 0.96763 0.37521 1.8516 0.93573 2.7079 1.5221s1.6944 1.2037 2.601 1.7089c0.9066 0.50515 1.893 0.89862 2.9263 0.99568 1.1138 0.10462 2.2378-0.13995 3.2813-0.54312s2.0185-0.96182 2.9926-1.5119c0.97408-0.55008 1.9574-1.0963 3.0111-1.472 1.0537-0.37565 2.19-0.57606 3.2967-0.41314 0.93189 0.13718 1.8111 0.52644 2.62 1.0091 0.80889 0.48263 1.5566 1.0596 2.3212 1.6096 0.76463 0.55007 1.5538 1.0777 2.4202 1.4472 0.8664 0.36955 1.8201 0.57611 2.7549 0.46015 0.74654-0.09261 1.4581-0.38786 2.0971-0.78486 0.63897-0.397 1.2099-0.89436 1.751-1.4169 1.0823-1.0451 2.0778-2.2156 3.3758-2.9763 0.98331-0.57624 2.1168-0.89351 3.2564-0.91146 1.1396-0.01795 2.2825 0.26347 3.2835 0.80846 1.001 0.54498 1.8576 1.3523 2.461 2.3192s0.95204 2.0912 1.0017 3.2298" style="fill:none;stroke-dashoffset:5.65;stroke-width:.565;stroke:#fff"/>
    <path d="m69.858 128.29c0.15828 1.3307 0.91445 2.5787 2.0206 3.335s2.5436 1.0081 3.841 0.67271c1.2966-0.33516 2.381-1.1979 3.4376-2.0206s2.18-1.6509 3.4968-1.8949c1.0205-0.18909 2.0839-6e-3 3.0515 0.3691 0.96763 0.37521 1.8516 0.93573 2.7079 1.5221s1.6944 1.2037 2.601 1.7089c0.9066 0.50516 1.893 0.89862 2.9263 0.99568 1.1138 0.10462 2.2378-0.13995 3.2813-0.54312 1.0435-0.40317 2.0185-0.96182 2.9926-1.5119 0.97407-0.55007 1.9574-1.0963 3.0111-1.472 1.0537-0.37564 2.19-0.57606 3.2967-0.41314 0.93189 0.13718 1.8111 0.52643 2.62 1.0091s1.5566 1.0596 2.3212 1.6096c0.76463 0.55007 1.5538 1.0777 2.4202 1.4472 0.8664 0.36955 1.8201 0.57611 2.7549 0.46015 0.74654-0.0926 1.4581-0.38786 2.0971-0.78486s1.2099-0.89435 1.751-1.4169c1.0823-1.0451 2.0778-2.2156 3.3758-2.9763 0.98331-0.57624 2.1168-0.89351 3.2564-0.91146 1.1396-0.0179 2.2825 0.26348 3.2835 0.80846 1.001 0.54499 1.8576 1.3523 2.461 2.3192s0.95204 2.0912 1.0017 3.2298" style="fill:none;stroke-dashoffset:5.65;stroke-width:.565;stroke:#fff"/>
    <path d="m69.858 99.081c0.15828 1.3307 0.91445 2.5787 2.0206 3.3351s2.5436 1.0081 3.841 0.67271c1.2966-0.33516 2.381-1.1979 3.4376-2.0206 1.0566-0.82276 2.18-1.6509 3.4968-1.8949 1.0205-0.18909 2.0839-0.0061 3.0515 0.3691 0.96763 0.37522 1.8516 0.93574 2.7079 1.5221s1.6944 1.2037 2.601 1.7089c0.9066 0.50516 1.893 0.89862 2.9263 0.99568 1.1138 0.10462 2.2378-0.13995 3.2813-0.54312 1.0435-0.40317 2.0185-0.96182 2.9926-1.5119 0.97407-0.55008 1.9574-1.0964 3.0111-1.472 1.0537-0.37564 2.19-0.57606 3.2967-0.41314 0.93189 0.13718 1.8111 0.52644 2.62 1.0091 0.80889 0.48263 1.5566 1.0596 2.3212 1.6096 0.76463 0.55007 1.5538 1.0777 2.4202 1.4472 0.8664 0.36955 1.8201 0.57611 2.7549 0.46015 0.74654-0.0926 1.4581-0.38786 2.0971-0.78486s1.2099-0.89436 1.751-1.4169c1.0823-1.0451 2.0778-2.2156 3.3758-2.9763 0.98331-0.57624 2.1168-0.89351 3.2564-0.91146 1.1396-0.01795 2.2825 0.26347 3.2835 0.80846 1.001 0.54498 1.8576 1.3523 2.461 2.3192 0.60336 0.9669 0.95203 2.0912 1.0017 3.2298" style="fill:none;stroke-dashoffset:5.65;stroke-width:.565;stroke:#fff"/>
    <path d="m69.858 89.346c0.15828 1.3307 0.91445 2.5787 2.0206 3.3351s2.5436 1.0081 3.841 0.67271c1.2966-0.33516 2.381-1.1979 3.4376-2.0206s2.18-1.6509 3.4968-1.8949c1.0205-0.18909 2.0839-0.0061 3.0515 0.3691 0.96763 0.37521 1.8516 0.93573 2.7079 1.5221 0.85631 0.58638 1.6944 1.2037 2.601 1.7089s1.893 0.89862 2.9263 0.99568c1.1138 0.10462 2.2378-0.13995 3.2813-0.54312 1.0435-0.40317 2.0185-0.96182 2.9926-1.5119 0.97407-0.55008 1.9574-1.0963 3.0111-1.472 1.0537-0.37565 2.19-0.57606 3.2967-0.41314 0.93189 0.13718 1.8111 0.52644 2.62 1.0091 0.80889 0.48263 1.5566 1.0596 2.3212 1.6096 0.76463 0.55007 1.5538 1.0777 2.4202 1.4472 0.8664 0.36955 1.8201 0.57611 2.7549 0.46015 0.74654-0.09261 1.4581-0.38786 2.0971-0.78486 0.63897-0.397 1.2099-0.89436 1.751-1.4169 1.0823-1.0451 2.0778-2.2156 3.3758-2.9763 0.98331-0.57624 2.1168-0.89351 3.2564-0.91146 1.1396-0.01795 2.2825 0.26347 3.2835 0.80846 1.001 0.54498 1.8576 1.3523 2.461 2.3192s0.95204 2.0912 1.0017 3.2298" style="fill:none;stroke-dashoffset:5.65;stroke-width:.565;stroke:#fff"/>
    <path d="m69.858 108.82c0.15828 1.3307 0.91445 2.5787 2.0206 3.335 1.1062 0.75633 2.5436 1.0081 3.841 0.67271 1.2966-0.33516 2.381-1.1979 3.4376-2.0206 1.0566-0.82276 2.18-1.6509 3.4968-1.8949 1.0205-0.18909 2.0839-6e-3 3.0515 0.3691 0.96763 0.37521 1.8516 0.93573 2.7079 1.5221 0.8563 0.58637 1.6944 1.2037 2.601 1.7089 0.9066 0.50515 1.893 0.89861 2.9263 0.99567 1.1138 0.10462 2.2378-0.13995 3.2813-0.54312 1.0435-0.40317 2.0185-0.96181 2.9926-1.5119 0.97407-0.55008 1.9574-1.0964 3.0111-1.472 1.0537-0.37565 2.19-0.57606 3.2967-0.41314 0.93189 0.13718 1.8111 0.52644 2.62 1.0091s1.5566 1.0596 2.3212 1.6096c0.76463 0.55008 1.5538 1.0777 2.4202 1.4472 0.8664 0.36955 1.8201 0.57611 2.7549 0.46015 0.74654-0.0926 1.4581-0.38786 2.0971-0.78486s1.2099-0.89436 1.751-1.4169c1.0823-1.0451 2.0778-2.2156 3.3758-2.9763 0.98331-0.57624 2.1168-0.89351 3.2564-0.91146 1.1396-0.0179 2.2825 0.26348 3.2835 0.80846 1.001 0.54499 1.8576 1.3523 2.461 2.3192 0.60336 0.9669 0.95203 2.0912 1.0017 3.2298" style="fill:none;stroke-dashoffset:5.65;stroke-width:.565;stroke:#fff"/>
    <path d="m69.858 69.875c0.15828 1.3307 0.91445 2.5787 2.0206 3.3351 1.1062 0.75634 2.5436 1.0081 3.841 0.67271 1.2966-0.33516 2.381-1.1979 3.4376-2.0206s2.18-1.6509 3.4968-1.8949c1.0205-0.18909 2.0839-0.0061 3.0515 0.3691 0.96763 0.37521 1.8516 0.93573 2.7079 1.5221s1.6944 1.2037 2.601 1.7089c0.9066 0.50515 1.893 0.89862 2.9263 0.99568 1.1138 0.10462 2.2378-0.13995 3.2813-0.54312 1.0435-0.40317 2.0185-0.96182 2.9926-1.5119 0.97407-0.55008 1.9574-1.0963 3.0111-1.472 1.0537-0.37565 2.19-0.57606 3.2967-0.41314 0.93189 0.13718 1.8111 0.52644 2.62 1.0091 0.80889 0.48263 1.5566 1.0596 2.3212 1.6096 0.76463 0.55007 1.5538 1.0777 2.4202 1.4472 0.8664 0.36955 1.8201 0.57611 2.7549 0.46015 0.74654-0.09261 1.4581-0.38786 2.0971-0.78486 0.63897-0.397 1.2099-0.89436 1.751-1.4169 1.0823-1.0451 2.0778-2.2156 3.3758-2.9763 0.98331-0.57624 2.1168-0.89351 3.2564-0.91146 1.1396-0.01795 2.2825 0.26347 3.2835 0.80846 1.001 0.54498 1.8576 1.3523 2.461 2.3192s0.95204 2.0912 1.0017 3.2298" style="fill:none;stroke-dashoffset:5.65;stroke-width:.565;stroke:#fff"/>
    <text transform="rotate(-28.012)" x="13.941809" y="187.7336" style="fill:#ffffff;font-family:Ubuntu;font-size:37.341px;line-height:1.25;stroke-width:.35007" xml:space="preserve"><tspan x="13.941809" y="187.7336" style="fill:#ffffff;font-size:37.341px;stroke-width:.35007">A+</tspan></text>
    <path d="m69.858 118.55c0.15828 1.3307 0.91445 2.5787 2.0206 3.3351 1.1062 0.75634 2.5436 1.0081 3.841 0.67271 1.2966-0.33516 2.381-1.1979 3.4376-2.0206s2.18-1.6509 3.4968-1.8949c1.0205-0.18909 2.0839-6e-3 3.0515 0.3691 0.96763 0.37521 1.8516 0.93573 2.7079 1.5221 0.8563 0.58637 1.6944 1.2037 2.601 1.7089 0.9066 0.50515 1.893 0.89861 2.9263 0.99567 1.1138 0.10462 2.2378-0.13995 3.2813-0.54312s2.0185-0.96181 2.9926-1.5119c0.97407-0.55008 1.9574-1.0964 3.0111-1.472 1.0537-0.37565 2.19-0.57606 3.2967-0.41314 0.93189 0.13718 1.8111 0.52644 2.62 1.0091s1.5566 1.0596 2.3212 1.6096c0.76463 0.55008 1.5538 1.0777 2.4202 1.4472 0.8664 0.36955 1.8201 0.57611 2.7549 0.46015 0.74654-0.0926 1.4581-0.38786 2.0971-0.78486s1.2099-0.89436 1.751-1.4169c1.0823-1.0451 2.0778-2.2156 3.3758-2.9763 0.98331-0.57624 2.1168-0.89351 3.2564-0.91146 1.1396-0.0179 2.2825 0.26348 3.2835 0.80846 1.001 0.54499 1.8576 1.3523 2.461 2.3192 0.60336 0.9669 0.95203 2.0912 1.0017 3.2298" style="fill:none;stroke-dashoffset:5.65;stroke-width:.565;stroke:#fff"/>
    <path d="m71.373 139.71c-0.32702 1.2837-0.65363 2.5659-0.81673 3.5041-0.1631 0.93822-0.1631 1.5318-0.27569 2.0151s-0.33735 0.8579-0.44953 1.1944c-0.11218 0.33652-0.11218 0.63332-0.22441 1.0797s-0.33622 1.0435-0.42966 1.8006c-0.09344 0.75708-0.05688 1.673 0.69216 1.6158 0.74905-0.0572 2.2102-1.0848 3.3829-1.8938 1.1727-0.80904 2.0567-1.3995 2.4281-1.5919 0.37136-0.19247 0.23089 0.0122-0.20931 0.52106-0.44019 0.50885-1.1803 1.3223-1.5504 1.84s-0.37002 0.73766-0.21495 1.0274c0.15507 0.28968 0.4631 0.64899 0.61606 0.86242s0.15296 0.28124 0.18797 0.34898c0.03501 0.0677 0.10279 0.13551 0.29734 0.16824 0.19455 0.0327 0.5159 0.0327 0.71064 0.0679 0.19474 0.0352 0.26289 0.10336 0.39071-0.49746 0.12782-0.60082 0.3179-1.8702 0.41308-2.7611 0.09518-0.89085 0.09518-1.4035 0.09518-1.6965s0-0.3662 0.08791 0.30377 0.26341 2.0829 0.42499 2.8621c0.16157 0.77919 0.30723 0.92485 0.52032 1.1367 0.21309 0.21182 0.4936 0.4898 0.77573 0.44562 0.28213-0.0442 0.56842-0.40853 0.74819-0.84774 0.17977-0.43922 0.25304-0.95493 0.40098-1.362s0.37054-0.70384 0.48198-1.0368c0.11144-0.33294 0.11144-0.70394 0.2225-1.1868s0.33367-1.0764 0.48217-1.6326c0.1485-0.55617 0.2227-1.0756 0.33396-1.4473 0.11126-0.3717 0.25967-0.5943 0.33404-0.81602 0.07438-0.22172 0.07438-0.44432 0.1484-0.66781 0.07403-0.22349 0.22242-0.44608 0.3664-0.77425 0.14398-0.32816 0.28364-0.76276 0.27467-0.61563-9e-3 0.14713-0.16665 0.87569-0.4317 1.8726-0.26506 0.99695-0.63742 2.2625-0.89776 3.0061s-0.40874 0.96619-0.59429 1.4118c-0.18555 0.44562-0.40815 1.1134-0.70565 1.782-0.29749 0.66856-0.66991 1.3385-0.96743 1.9707s-0.52013 1.2264-0.63119 1.6316c-0.11106 0.40526-0.11106 0.62063-0.14839 0.84212-0.03733 0.22149-0.11153 0.44999 0.11107-0.23753 0.2226-0.68751 0.742-2.291 1.1722-3.2158 0.43017-0.92478 0.77022-1.1691 1.0815-1.0734 0.31129 0.0957 0.5925 0.52856 0.807 0.93052 0.2145 0.40197 0.3629 0.77298 0.43655 1.4772 0.07364 0.7042 0.07364 1.7421 0.23159 2.421 0.15795 0.67888 0.47157 0.99871 0.91827 0.90311s1.0286-0.6042 1.459-0.89573c0.43041-0.29153 0.70795-0.36573 1.2533-0.95869 0.5453-0.59297 1.3602-1.7055 1.6812-2.1269 0.32093-0.42143 0.14795-0.15193 0.02436 0.16891-0.12358 0.32085-0.19778 0.69185-0.64304 1.7484-0.44526 1.0565-1.2615 2.7993-1.4758 3.6932-0.2143 0.8939 0.17029 0.93957 0.61703 0.37822 0.44674-0.56135 0.95862-1.7305 1.2148-2.3854 0.25618-0.65489 0.25618-0.7967 0.32941-0.94199 0.07323-0.14529 0.2197-0.29176 0.29293-0.60964 0.07323-0.31789 0.07323-0.80949 0.11045-0.65095 0.03722 0.15854 0.11142 0.96703 0.6068 1.308 0.49539 0.341 1.4102 0.21726 1.8667 0.0498 0.45645-0.1675 0.45645-0.38134 0.53042-0.63735s0.22237-0.55281 0.2968-1.4745c0.07443-0.92171 0.07443-2.4697-0.48096-3.8372-0.55539-1.3676-1.6684-2.5548-2.3362-3.1496-0.66776-0.59479-0.89036-0.59479-1.224-0.7054s-0.77887-0.33321-1.0759-0.51825c-0.29703-0.18504-0.44543-0.33344-0.74088-0.40879-0.29546-0.0753-0.73796-0.0753-1.7731-0.11193-1.0351-0.0366-2.663-0.10987-3.6993-0.2203-1.0363-0.11043-1.4815-0.25883-1.9984-0.33349-0.51683-0.0747-1.1048-0.0747-1.694-0.18544-0.58922-0.11078-1.1801-0.33338-2.3694-0.4452-1.1893-0.11182-2.9764-0.11182-4.0853 0.0311-1.1088 0.14289-1.5376 0.42901-1.8903 0.60114-0.35272 0.17213-0.63058 0.23029-0.91018 0.28881" style="fill:none;stroke-width:.31679;stroke:#fff"/>
   </g>
   <path x="60.749184" y="46.857868" width="82.225937" height="118.8037" ry="0" d="m60.749 46.858h82.226v118.8h-82.226z" style="fill:none;stroke-linecap:round;stroke-width:1.8102;stroke:#fff"/>
   <path d="m69.858 60.139c0.15828 1.3307 0.91445 2.5787 2.0206 3.3351s2.5436 1.0081 3.841 0.67271c1.2966-0.33516 2.381-1.1979 3.4376-2.0206s2.18-1.6509 3.4968-1.8949c1.0205-0.18909 2.0839-0.0061 3.0515 0.3691 0.96763 0.37521 1.8516 0.93573 2.7079 1.5221s1.6944 1.2037 2.601 1.7089c0.9066 0.50515 1.893 0.89862 2.9263 0.99568 1.1138 0.10462 2.2378-0.13995 3.2813-0.54312 1.0435-0.40317 2.0185-0.96182 2.9926-1.5119 0.97407-0.55008 1.9574-1.0963 3.0111-1.472 1.0537-0.37565 2.19-0.57606 3.2967-0.41314 0.93189 0.13718 1.8111 0.52643 2.62 1.0091 0.80889 0.48263 1.5566 1.0596 2.3212 1.6096 0.76463 0.55007 1.5538 1.0777 2.4202 1.4472 0.8664 0.36955 1.8201 0.57611 2.7549 0.46015 0.74654-0.09261 1.4581-0.38786 2.0971-0.78486 0.63897-0.397 1.2099-0.89436 1.751-1.4169 1.0823-1.0451 2.0778-2.2156 3.3758-2.9763 0.98331-0.57624 2.1168-0.89351 3.2564-0.91146 1.1396-0.01795 2.2825 0.26347 3.2835 0.80846 1.001 0.54498 1.8576 1.3523 2.461 2.3192s0.95204 2.0912 1.0017 3.2298" style="fill:none;stroke-dashoffset:5.65;stroke-width:.565;stroke:#fff"/>
   <path d="m69.858 79.61c0.15828 1.3307 0.91445 2.5787 2.0206 3.3351s2.5436 1.0081 3.841 0.67271c1.2966-0.33516 2.381-1.1979 3.4376-2.0206s2.18-1.6509 3.4968-1.8949c1.0205-0.18909 2.0839-0.0061 3.0515 0.3691 0.96763 0.37521 1.8516 0.93573 2.7079 1.5221s1.6944 1.2037 2.601 1.7089c0.9066 0.50515 1.893 0.89862 2.9263 0.99568 1.1138 0.10462 2.2378-0.13995 3.2813-0.54312s2.0185-0.96182 2.9926-1.5119c0.97408-0.55008 1.9574-1.0963 3.0111-1.472 1.0537-0.37565 2.19-0.57606 3.2967-0.41314 0.93189 0.13718 1.8111 0.52644 2.62 1.0091 0.80889 0.48263 1.5566 1.0596 2.3212 1.6096 0.76463 0.55007 1.5538 1.0777 2.4202 1.4472 0.8664 0.36955 1.8201 0.57611 2.7549 0.46015 0.74654-0.09261 1.4581-0.38786 2.0971-0.78486 0.63897-0.397 1.2099-0.89436 1.751-1.4169 1.0823-1.0451 2.0778-2.2156 3.3758-2.9763 0.98331-0.57624 2.1168-0.89351 3.2564-0.91146 1.1396-0.01795 2.2825 0.26347 3.2835 0.80846 1.001 0.54498 1.8576 1.3523 2.461 2.3192s0.95204 2.0912 1.0017 3.2298" style="fill:none;stroke-dashoffset:5.65;stroke-width:.565;stroke:#fff"/>
   <path d="m69.858 128.29c0.15828 1.3307 0.91445 2.5787 2.0206 3.335s2.5436 1.0081 3.841 0.67271c1.2966-0.33516 2.381-1.1979 3.4376-2.0206s2.18-1.6509 3.4968-1.8949c1.0205-0.18909 2.0839-6e-3 3.0515 0.3691 0.96763 0.37521 1.8516 0.93573 2.7079 1.5221s1.6944 1.2037 2.601 1.7089c0.9066 0.50516 1.893 0.89862 2.9263 0.99568 1.1138 0.10462 2.2378-0.13995 3.2813-0.54312 1.0435-0.40317 2.0185-0.96182 2.9926-1.5119 0.97407-0.55007 1.9574-1.0963 3.0111-1.472 1.0537-0.37564 2.19-0.57606 3.2967-0.41314 0.93189 0.13718 1.8111 0.52643 2.62 1.0091s1.5566 1.0596 2.3212 1.6096c0.76463 0.55007 1.5538 1.0777 2.4202 1.4472 0.8664 0.36955 1.8201 0.57611 2.7549 0.46015 0.74654-0.0926 1.4581-0.38786 2.0971-0.78486s1.2099-0.89435 1.751-1.4169c1.0823-1.0451 2.0778-2.2156 3.3758-2.9763 0.98331-0.57624 2.1168-0.89351 3.2564-0.91146 1.1396-0.0179 2.2825 0.26348 3.2835 0.80846 1.001 0.54499 1.8576 1.3523 2.461 2.3192s0.95204 2.0912 1.0017 3.2298" style="fill:none;stroke-dashoffset:5.65;stroke-width:.565;stroke:#fff"/>
   <path d="m69.858 99.081c0.15828 1.3307 0.91445 2.5787 2.0206 3.3351s2.5436 1.0081 3.841 0.67271c1.2966-0.33516 2.381-1.1979 3.4376-2.0206 1.0566-0.82276 2.18-1.6509 3.4968-1.8949 1.0205-0.18909 2.0839-0.0061 3.0515 0.3691 0.96763 0.37522 1.8516 0.93574 2.7079 1.5221s1.6944 1.2037 2.601 1.7089c0.9066 0.50516 1.893 0.89862 2.9263 0.99568 1.1138 0.10462 2.2378-0.13995 3.2813-0.54312 1.0435-0.40317 2.0185-0.96182 2.9926-1.5119 0.97407-0.55008 1.9574-1.0964 3.0111-1.472 1.0537-0.37564 2.19-0.57606 3.2967-0.41314 0.93189 0.13718 1.8111 0.52644 2.62 1.0091 0.80889 0.48263 1.5566 1.0596 2.3212 1.6096 0.76463 0.55007 1.5538 1.0777 2.4202 1.4472 0.8664 0.36955 1.8201 0.57611 2.7549 0.46015 0.74654-0.0926 1.4581-0.38786 2.0971-0.78486s1.2099-0.89436 1.751-1.4169c1.0823-1.0451 2.0778-2.2156 3.3758-2.9763 0.98331-0.57624 2.1168-0.89351 3.2564-0.91146 1.1396-0.01795 2.2825 0.26347 3.2835 0.80846 1.001 0.54498 1.8576 1.3523 2.461 2.3192 0.60336 0.9669 0.95203 2.0912 1.0017 3.2298" style="fill:none;stroke-dashoffset:5.65;stroke-width:.565;stroke:#fff"/>
   <path d="m69.858 89.346c0.15828 1.3307 0.91445 2.5787 2.0206 3.3351s2.5436 1.0081 3.841 0.67271c1.2966-0.33516 2.381-1.1979 3.4376-2.0206s2.18-1.6509 3.4968-1.8949c1.0205-0.18909 2.0839-0.0061 3.0515 0.3691 0.96763 0.37521 1.8516 0.93573 2.7079 1.5221 0.85631 0.58638 1.6944 1.2037 2.601 1.7089s1.893 0.89862 2.9263 0.99568c1.1138 0.10462 2.2378-0.13995 3.2813-0.54312 1.0435-0.40317 2.0185-0.96182 2.9926-1.5119 0.97407-0.55008 1.9574-1.0963 3.0111-1.472 1.0537-0.37565 2.19-0.57606 3.2967-0.41314 0.93189 0.13718 1.8111 0.52644 2.62 1.0091 0.80889 0.48263 1.5566 1.0596 2.3212 1.6096 0.76463 0.55007 1.5538 1.0777 2.4202 1.4472 0.8664 0.36955 1.8201 0.57611 2.7549 0.46015 0.74654-0.09261 1.4581-0.38786 2.0971-0.78486 0.63897-0.397 1.2099-0.89436 1.751-1.4169 1.0823-1.0451 2.0778-2.2156 3.3758-2.9763 0.98331-0.57624 2.1168-0.89351 3.2564-0.91146 1.1396-0.01795 2.2825 0.26347 3.2835 0.80846 1.001 0.54498 1.8576 1.3523 2.461 2.3192s0.95204 2.0912 1.0017 3.2298" style="fill:none;stroke-dashoffset:5.65;stroke-width:.565;stroke:#fff"/>
   <path d="m69.858 108.82c0.15828 1.3307 0.91445 2.5787 2.0206 3.335 1.1062 0.75633 2.5436 1.0081 3.841 0.67271 1.2966-0.33516 2.381-1.1979 3.4376-2.0206 1.0566-0.82276 2.18-1.6509 3.4968-1.8949 1.0205-0.18909 2.0839-6e-3 3.0515 0.3691 0.96763 0.37521 1.8516 0.93573 2.7079 1.5221 0.8563 0.58637 1.6944 1.2037 2.601 1.7089 0.9066 0.50515 1.893 0.89861 2.9263 0.99567 1.1138 0.10462 2.2378-0.13995 3.2813-0.54312 1.0435-0.40317 2.0185-0.96181 2.9926-1.5119 0.97407-0.55008 1.9574-1.0964 3.0111-1.472 1.0537-0.37565 2.19-0.57606 3.2967-0.41314 0.93189 0.13718 1.8111 0.52644 2.62 1.0091s1.5566 1.0596 2.3212 1.6096c0.76463 0.55008 1.5538 1.0777 2.4202 1.4472 0.8664 0.36955 1.8201 0.57611 2.7549 0.46015 0.74654-0.0926 1.4581-0.38786 2.0971-0.78486s1.2099-0.89436 1.751-1.4169c1.0823-1.0451 2.0778-2.2156 3.3758-2.9763 0.98331-0.57624 2.1168-0.89351 3.2564-0.91146 1.1396-0.0179 2.2825 0.26348 3.2835 0.80846 1.001 0.54499 1.8576 1.3523 2.461 2.3192 0.60336 0.9669 0.95203 2.0912 1.0017 3.2298" style="fill:none;stroke-dashoffset:5.65;stroke-width:.565;stroke:#fff"/>
   <path d="m69.858 69.875c0.15828 1.3307 0.91445 2.5787 2.0206 3.3351 1.1062 0.75634 2.5436 1.0081 3.841 0.67271 1.2966-0.33516 2.381-1.1979 3.4376-2.0206s2.18-1.6509 3.4968-1.8949c1.0205-0.18909 2.0839-0.0061 3.0515 0.3691 0.96763 0.37521 1.8516 0.93573 2.7079 1.5221s1.6944 1.2037 2.601 1.7089c0.9066 0.50515 1.893 0.89862 2.9263 0.99568 1.1138 0.10462 2.2378-0.13995 3.2813-0.54312 1.0435-0.40317 2.0185-0.96182 2.9926-1.5119 0.97407-0.55008 1.9574-1.0963 3.0111-1.472 1.0537-0.37565 2.19-0.57606 3.2967-0.41314 0.93189 0.13718 1.8111 0.52644 2.62 1.0091 0.80889 0.48263 1.5566 1.0596 2.3212 1.6096 0.76463 0.55007 1.5538 1.0777 2.4202 1.4472 0.8664 0.36955 1.8201 0.57611 2.7549 0.46015 0.74654-0.09261 1.4581-0.38786 2.0971-0.78486 0.63897-0.397 1.2099-0.89436 1.751-1.4169 1.0823-1.0451 2.0778-2.2156 3.3758-2.9763 0.98331-0.57624 2.1168-0.89351 3.2564-0.91146 1.1396-0.01795 2.2825 0.26347 3.2835 0.80846 1.001 0.54498 1.8576 1.3523 2.461 2.3192s0.95204 2.0912 1.0017 3.2298" style="fill:none;stroke-dashoffset:5.65;stroke-width:.565;stroke:#fff"/>
   <text transform="rotate(-28.012)" x="13.941809" y="187.7336" style="fill:#ffffff;font-family:Ubuntu;font-size:37.341px;line-height:1.25;stroke-width:.35007" xml:space="preserve"><tspan x="13.941809" y="187.7336" style="fill:#ffffff;font-size:37.341px;stroke-width:.35007">A+</tspan></text>
   <path d="m69.858 118.55c0.15828 1.3307 0.91445 2.5787 2.0206 3.3351 1.1062 0.75634 2.5436 1.0081 3.841 0.67271 1.2966-0.33516 2.381-1.1979 3.4376-2.0206s2.18-1.6509 3.4968-1.8949c1.0205-0.18909 2.0839-6e-3 3.0515 0.3691 0.96763 0.37521 1.8516 0.93573 2.7079 1.5221 0.8563 0.58637 1.6944 1.2037 2.601 1.7089 0.9066 0.50515 1.893 0.89861 2.9263 0.99567 1.1138 0.10462 2.2378-0.13995 3.2813-0.54312s2.0185-0.96181 2.9926-1.5119c0.97407-0.55008 1.9574-1.0964 3.0111-1.472 1.0537-0.37565 2.19-0.57606 3.2967-0.41314 0.93189 0.13718 1.8111 0.52644 2.62 1.0091s1.5566 1.0596 2.3212 1.6096c0.76463 0.55008 1.5538 1.0777 2.4202 1.4472 0.8664 0.36955 1.8201 0.57611 2.7549 0.46015 0.74654-0.0926 1.4581-0.38786 2.0971-0.78486s1.2099-0.89436 1.751-1.4169c1.0823-1.0451 2.0778-2.2156 3.3758-2.9763 0.98331-0.57624 2.1168-0.89351 3.2564-0.91146 1.1396-0.0179 2.2825 0.26348 3.2835 0.80846 1.001 0.54499 1.8576 1.3523 2.461 2.3192 0.60336 0.9669 0.95203 2.0912 1.0017 3.2298" style="fill:none;stroke-dashoffset:5.65;stroke-width:.565;stroke:#fff"/>
   <path d="m71.373 139.71c-0.32702 1.2837-0.65363 2.5659-0.81673 3.5041-0.1631 0.93822-0.1631 1.5318-0.27569 2.0151s-0.33735 0.8579-0.44953 1.1944c-0.11218 0.33652-0.11218 0.63332-0.22441 1.0797s-0.33622 1.0435-0.42966 1.8006c-0.09344 0.75708-0.05688 1.673 0.69216 1.6158 0.74905-0.0572 2.2102-1.0848 3.3829-1.8938 1.1727-0.80904 2.0567-1.3995 2.4281-1.5919 0.37136-0.19247 0.23089 0.0122-0.20931 0.52106-0.44019 0.50885-1.1803 1.3223-1.5504 1.84s-0.37002 0.73766-0.21495 1.0274c0.15507 0.28968 0.4631 0.64899 0.61606 0.86242s0.15296 0.28124 0.18797 0.34898c0.03501 0.0677 0.10279 0.13551 0.29734 0.16824 0.19455 0.0327 0.5159 0.0327 0.71064 0.0679 0.19474 0.0352 0.26289 0.10336 0.39071-0.49746 0.12782-0.60082 0.3179-1.8702 0.41308-2.7611 0.09518-0.89085 0.09518-1.4035 0.09518-1.6965s0-0.3662 0.08791 0.30377 0.26341 2.0829 0.42499 2.8621c0.16157 0.77919 0.30723 0.92485 0.52032 1.1367 0.21309 0.21182 0.4936 0.4898 0.77573 0.44562 0.28213-0.0442 0.56842-0.40853 0.74819-0.84774 0.17977-0.43922 0.25304-0.95493 0.40098-1.362s0.37054-0.70384 0.48198-1.0368c0.11144-0.33294 0.11144-0.70394 0.2225-1.1868s0.33367-1.0764 0.48217-1.6326c0.1485-0.55617 0.2227-1.0756 0.33396-1.4473 0.11126-0.3717 0.25967-0.5943 0.33404-0.81602 0.07438-0.22172 0.07438-0.44432 0.1484-0.66781 0.07403-0.22349 0.22242-0.44608 0.3664-0.77425 0.14398-0.32816 0.28364-0.76276 0.27467-0.61563-9e-3 0.14713-0.16665 0.87569-0.4317 1.8726-0.26506 0.99695-0.63742 2.2625-0.89776 3.0061s-0.40874 0.96619-0.59429 1.4118c-0.18555 0.44562-0.40815 1.1134-0.70565 1.782-0.29749 0.66856-0.66991 1.3385-0.96743 1.9707s-0.52013 1.2264-0.63119 1.6316c-0.11106 0.40526-0.11106 0.62063-0.14839 0.84212-0.03733 0.22149-0.11153 0.44999 0.11107-0.23753 0.2226-0.68751 0.742-2.291 1.1722-3.2158 0.43017-0.92478 0.77022-1.1691 1.0815-1.0734 0.31129 0.0957 0.5925 0.52856 0.807 0.93052 0.2145 0.40197 0.3629 0.77298 0.43655 1.4772 0.07364 0.7042 0.07364 1.7421 0.23159 2.421 0.15795 0.67888 0.47157 0.99871 0.91827 0.90311s1.0286-0.6042 1.459-0.89573c0.43041-0.29153 0.70795-0.36573 1.2533-0.95869 0.5453-0.59297 1.3602-1.7055 1.6812-2.1269 0.32093-0.42143 0.14795-0.15193 0.02436 0.16891-0.12358 0.32085-0.19778 0.69185-0.64304 1.7484-0.44526 1.0565-1.2615 2.7993-1.4758 3.6932-0.2143 0.8939 0.17029 0.93957 0.61703 0.37822 0.44674-0.56135 0.95862-1.7305 1.2148-2.3854 0.25618-0.65489 0.25618-0.7967 0.32941-0.94199 0.07323-0.14529 0.2197-0.29176 0.29293-0.60964 0.07323-0.31789 0.07323-0.80949 0.11045-0.65095 0.03722 0.15854 0.11142 0.96703 0.6068 1.308 0.49539 0.341 1.4102 0.21726 1.8667 0.0498 0.45645-0.1675 0.45645-0.38134 0.53042-0.63735s0.22237-0.55281 0.2968-1.4745c0.07443-0.92171 0.07443-2.4697-0.48096-3.8372-0.55539-1.3676-1.6684-2.5548-2.3362-3.1496-0.66776-0.59479-0.89036-0.59479-1.224-0.7054s-0.77887-0.33321-1.0759-0.51825c-0.29703-0.18504-0.44543-0.33344-0.74088-0.40879-0.29546-0.0753-0.73796-0.0753-1.7731-0.11193-1.0351-0.0366-2.663-0.10987-3.6993-0.2203-1.0363-0.11043-1.4815-0.25883-1.9984-0.33349-0.51683-0.0747-1.1048-0.0747-1.694-0.18544-0.58922-0.11078-1.1801-0.33338-2.3694-0.4452-1.1893-0.11182-2.9764-0.11182-4.0853 0.0311-1.1088 0.14289-1.5376 0.42901-1.8903 0.60114-0.35272 0.17213-0.63058 0.23029-0.91018 0.28881" style="fill:none;stroke-width:.31679;stroke:#fff"/>
  </g>
  <rect x="60.749" y="46.858" width="82.226" height="118.8" ry="0" style="fill:none;stroke-linecap:round;stroke-width:1.8102;stroke:#fff"/>
  <path d="m69.858 60.139c0.15828 1.3307 0.91445 2.5787 2.0206 3.3351s2.5436 1.0081 3.841 0.67271c1.2966-0.33516 2.381-1.1979 3.4376-2.0206s2.18-1.6509 3.4968-1.8949c1.0205-0.18909 2.0839-0.0061 3.0515 0.3691 0.96763 0.37521 1.8516 0.93573 2.7079 1.5221s1.6944 1.2037 2.601 1.7089c0.9066 0.50515 1.893 0.89862 2.9263 0.99568 1.1138 0.10462 2.2378-0.13995 3.2813-0.54312 1.0435-0.40317 2.0185-0.96182 2.9926-1.5119 0.97407-0.55008 1.9574-1.0963 3.0111-1.472 1.0537-0.37565 2.19-0.57606 3.2967-0.41314 0.93189 0.13718 1.8111 0.52643 2.62 1.0091 0.80889 0.48263 1.5566 1.0596 2.3212 1.6096 0.76463 0.55007 1.5538 1.0777 2.4202 1.4472 0.8664 0.36955 1.8201 0.57611 2.7549 0.46015 0.74654-0.09261 1.4581-0.38786 2.0971-0.78486 0.63897-0.397 1.2099-0.89436 1.751-1.4169 1.0823-1.0451 2.0778-2.2156 3.3758-2.9763 0.98331-0.57624 2.1168-0.89351 3.2564-0.91146 1.1396-0.01795 2.2825 0.26347 3.2835 0.80846 1.001 0.54498 1.8576 1.3523 2.461 2.3192s0.95204 2.0912 1.0017 3.2298" style="fill:none;stroke-dashoffset:5.65;stroke-width:.565;stroke:#fff"/>
  <path d="m69.858 79.61c0.15828 1.3307 0.91445 2.5787 2.0206 3.3351s2.5436 1.0081 3.841 0.67271c1.2966-0.33516 2.381-1.1979 3.4376-2.0206s2.18-1.6509 3.4968-1.8949c1.0205-0.18909 2.0839-0.0061 3.0515 0.3691 0.96763 0.37521 1.8516 0.93573 2.7079 1.5221s1.6944 1.2037 2.601 1.7089c0.9066 0.50515 1.893 0.89862 2.9263 0.99568 1.1138 0.10462 2.2378-0.13995 3.2813-0.54312s2.0185-0.96182 2.9926-1.5119c0.97408-0.55008 1.9574-1.0963 3.0111-1.472 1.0537-0.37565 2.19-0.57606 3.2967-0.41314 0.93189 0.13718 1.8111 0.52644 2.62 1.0091 0.80889 0.48263 1.5566 1.0596 2.3212 1.6096 0.76463 0.55007 1.5538 1.0777 2.4202 1.4472 0.8664 0.36955 1.8201 0.57611 2.7549 0.46015 0.74654-0.09261 1.4581-0.38786 2.0971-0.78486 0.63897-0.397 1.2099-0.89436 1.751-1.4169 1.0823-1.0451 2.0778-2.2156 3.3758-2.9763 0.98331-0.57624 2.1168-0.89351 3.2564-0.91146 1.1396-0.01795 2.2825 0.26347 3.2835 0.80846 1.001 0.54498 1.8576 1.3523 2.461 2.3192s0.95204 2.0912 1.0017 3.2298" style="fill:none;stroke-dashoffset:5.65;stroke-width:.565;stroke:#fff"/>
  <path d="m69.858 128.29c0.15828 1.3307 0.91445 2.5787 2.0206 3.335s2.5436 1.0081 3.841 0.67271c1.2966-0.33516 2.381-1.1979 3.4376-2.0206s2.18-1.6509 3.4968-1.8949c1.0205-0.18909 2.0839-6e-3 3.0515 0.3691 0.96763 0.37521 1.8516 0.93573 2.7079 1.5221s1.6944 1.2037 2.601 1.7089c0.9066 0.50516 1.893 0.89862 2.9263 0.99568 1.1138 0.10462 2.2378-0.13995 3.2813-0.54312 1.0435-0.40317 2.0185-0.96182 2.9926-1.5119 0.97407-0.55007 1.9574-1.0963 3.0111-1.472 1.0537-0.37564 2.19-0.57606 3.2967-0.41314 0.93189 0.13718 1.8111 0.52643 2.62 1.0091s1.5566 1.0596 2.3212 1.6096c0.76463 0.55007 1.5538 1.0777 2.4202 1.4472 0.8664 0.36955 1.8201 0.57611 2.7549 0.46015 0.74654-0.0926 1.4581-0.38786 2.0971-0.78486s1.2099-0.89435 1.751-1.4169c1.0823-1.0451 2.0778-2.2156 3.3758-2.9763 0.98331-0.57624 2.1168-0.89351 3.2564-0.91146 1.1396-0.0179 2.2825 0.26348 3.2835 0.80846 1.001 0.54499 1.8576 1.3523 2.461 2.3192s0.95204 2.0912 1.0017 3.2298" style="fill:none;stroke-dashoffset:5.65;stroke-width:.565;stroke:#fff"/>
  <path d="m69.858 99.081c0.15828 1.3307 0.91445 2.5787 2.0206 3.3351s2.5436 1.0081 3.841 0.67271c1.2966-0.33516 2.381-1.1979 3.4376-2.0206 1.0566-0.82276 2.18-1.6509 3.4968-1.8949 1.0205-0.18909 2.0839-0.0061 3.0515 0.3691 0.96763 0.37522 1.8516 0.93574 2.7079 1.5221s1.6944 1.2037 2.601 1.7089c0.9066 0.50516 1.893 0.89862 2.9263 0.99568 1.1138 0.10462 2.2378-0.13995 3.2813-0.54312 1.0435-0.40317 2.0185-0.96182 2.9926-1.5119 0.97407-0.55008 1.9574-1.0964 3.0111-1.472 1.0537-0.37564 2.19-0.57606 3.2967-0.41314 0.93189 0.13718 1.8111 0.52644 2.62 1.0091 0.80889 0.48263 1.5566 1.0596 2.3212 1.6096 0.76463 0.55007 1.5538 1.0777 2.4202 1.4472 0.8664 0.36955 1.8201 0.57611 2.7549 0.46015 0.74654-0.0926 1.4581-0.38786 2.0971-0.78486s1.2099-0.89436 1.751-1.4169c1.0823-1.0451 2.0778-2.2156 3.3758-2.9763 0.98331-0.57624 2.1168-0.89351 3.2564-0.91146 1.1396-0.01795 2.2825 0.26347 3.2835 0.80846 1.001 0.54498 1.8576 1.3523 2.461 2.3192 0.60336 0.9669 0.95203 2.0912 1.0017 3.2298" style="fill:none;stroke-dashoffset:5.65;stroke-width:.565;stroke:#fff"/>
  <path d="m69.858 89.346c0.15828 1.3307 0.91445 2.5787 2.0206 3.3351s2.5436 1.0081 3.841 0.67271c1.2966-0.33516 2.381-1.1979 3.4376-2.0206s2.18-1.6509 3.4968-1.8949c1.0205-0.18909 2.0839-0.0061 3.0515 0.3691 0.96763 0.37521 1.8516 0.93573 2.7079 1.5221 0.85631 0.58638 1.6944 1.2037 2.601 1.7089s1.893 0.89862 2.9263 0.99568c1.1138 0.10462 2.2378-0.13995 3.2813-0.54312 1.0435-0.40317 2.0185-0.96182 2.9926-1.5119 0.97407-0.55008 1.9574-1.0963 3.0111-1.472 1.0537-0.37565 2.19-0.57606 3.2967-0.41314 0.93189 0.13718 1.8111 0.52644 2.62 1.0091 0.80889 0.48263 1.5566 1.0596 2.3212 1.6096 0.76463 0.55007 1.5538 1.0777 2.4202 1.4472 0.8664 0.36955 1.8201 0.57611 2.7549 0.46015 0.74654-0.09261 1.4581-0.38786 2.0971-0.78486 0.63897-0.397 1.2099-0.89436 1.751-1.4169 1.0823-1.0451 2.0778-2.2156 3.3758-2.9763 0.98331-0.57624 2.1168-0.89351 3.2564-0.91146 1.1396-0.01795 2.2825 0.26347 3.2835 0.80846 1.001 0.54498 1.8576 1.3523 2.461 2.3192s0.95204 2.0912 1.0017 3.2298" style="fill:none;stroke-dashoffset:5.65;stroke-width:.565;stroke:#fff"/>
  <path d="m69.858 108.82c0.15828 1.3307 0.91445 2.5787 2.0206 3.335 1.1062 0.75633 2.5436 1.0081 3.841 0.67271 1.2966-0.33516 2.381-1.1979 3.4376-2.0206 1.0566-0.82276 2.18-1.6509 3.4968-1.8949 1.0205-0.18909 2.0839-6e-3 3.0515 0.3691 0.96763 0.37521 1.8516 0.93573 2.7079 1.5221 0.8563 0.58637 1.6944 1.2037 2.601 1.7089 0.9066 0.50515 1.893 0.89861 2.9263 0.99567 1.1138 0.10462 2.2378-0.13995 3.2813-0.54312 1.0435-0.40317 2.0185-0.96181 2.9926-1.5119 0.97407-0.55008 1.9574-1.0964 3.0111-1.472 1.0537-0.37565 2.19-0.57606 3.2967-0.41314 0.93189 0.13718 1.8111 0.52644 2.62 1.0091s1.5566 1.0596 2.3212 1.6096c0.76463 0.55008 1.5538 1.0777 2.4202 1.4472 0.8664 0.36955 1.8201 0.57611 2.7549 0.46015 0.74654-0.0926 1.4581-0.38786 2.0971-0.78486s1.2099-0.89436 1.751-1.4169c1.0823-1.0451 2.0778-2.2156 3.3758-2.9763 0.98331-0.57624 2.1168-0.89351 3.2564-0.91146 1.1396-0.0179 2.2825 0.26348 3.2835 0.80846 1.001 0.54499 1.8576 1.3523 2.461 2.3192 0.60336 0.9669 0.95203 2.0912 1.0017 3.2298" style="fill:none;stroke-dashoffset:5.65;stroke-width:.565;stroke:#fff"/>
  <path d="m69.858 69.875c0.15828 1.3307 0.91445 2.5787 2.0206 3.3351 1.1062 0.75634 2.5436 1.0081 3.841 0.67271 1.2966-0.33516 2.381-1.1979 3.4376-2.0206s2.18-1.6509 3.4968-1.8949c1.0205-0.18909 2.0839-0.0061 3.0515 0.3691 0.96763 0.37521 1.8516 0.93573 2.7079 1.5221s1.6944 1.2037 2.601 1.7089c0.9066 0.50515 1.893 0.89862 2.9263 0.99568 1.1138 0.10462 2.2378-0.13995 3.2813-0.54312 1.0435-0.40317 2.0185-0.96182 2.9926-1.5119 0.97407-0.55008 1.9574-1.0963 3.0111-1.472 1.0537-0.37565 2.19-0.57606 3.2967-0.41314 0.93189 0.13718 1.8111 0.52644 2.62 1.0091 0.80889 0.48263 1.5566 1.0596 2.3212 1.6096 0.76463 0.55007 1.5538 1.0777 2.4202 1.4472 0.8664 0.36955 1.8201 0.57611 2.7549 0.46015 0.74654-0.09261 1.4581-0.38786 2.0971-0.78486 0.63897-0.397 1.2099-0.89436 1.751-1.4169 1.0823-1.0451 2.0778-2.2156 3.3758-2.9763 0.98331-0.57624 2.1168-0.89351 3.2564-0.91146 1.1396-0.01795 2.2825 0.26347 3.2835 0.80846 1.001 0.54498 1.8576 1.3523 2.461 2.3192s0.95204 2.0912 1.0017 3.2298" style="fill:none;stroke-dashoffset:5.65;stroke-width:.565;stroke:#fff"/>
  <text transform="rotate(-28.012)" x="13.941809" y="187.7336" style="fill:#ffffff;font-family:Ubuntu;font-size:37.341px;line-height:1.25;stroke-width:.35007" xml:space="preserve"><tspan x="13.941809" y="187.7336" style="fill:#ffffff;font-size:37.341px;stroke-width:.35007">A+</tspan></text>
  <path d="m69.858 118.55c0.15828 1.3307 0.91445 2.5787 2.0206 3.3351 1.1062 0.75634 2.5436 1.0081 3.841 0.67271 1.2966-0.33516 2.381-1.1979 3.4376-2.0206s2.18-1.6509 3.4968-1.8949c1.0205-0.18909 2.0839-6e-3 3.0515 0.3691 0.96763 0.37521 1.8516 0.93573 2.7079 1.5221 0.8563 0.58637 1.6944 1.2037 2.601 1.7089 0.9066 0.50515 1.893 0.89861 2.9263 0.99567 1.1138 0.10462 2.2378-0.13995 3.2813-0.54312s2.0185-0.96181 2.9926-1.5119c0.97407-0.55008 1.9574-1.0964 3.0111-1.472 1.0537-0.37565 2.19-0.57606 3.2967-0.41314 0.93189 0.13718 1.8111 0.52644 2.62 1.0091s1.5566 1.0596 2.3212 1.6096c0.76463 0.55008 1.5538 1.0777 2.4202 1.4472 0.8664 0.36955 1.8201 0.57611 2.7549 0.46015 0.74654-0.0926 1.4581-0.38786 2.0971-0.78486s1.2099-0.89436 1.751-1.4169c1.0823-1.0451 2.0778-2.2156 3.3758-2.9763 0.98331-0.57624 2.1168-0.89351 3.2564-0.91146 1.1396-0.0179 2.2825 0.26348 3.2835 0.80846 1.001 0.54499 1.8576 1.3523 2.461 2.3192 0.60336 0.9669 0.95203 2.0912 1.0017 3.2298" style="fill:none;stroke-dashoffset:5.65;stroke-width:.565;stroke:#fff"/>
  <path d="m71.373 139.71c-0.32702 1.2837-0.65363 2.5659-0.81673 3.5041-0.1631 0.93822-0.1631 1.5318-0.27569 2.0151s-0.33735 0.8579-0.44953 1.1944c-0.11218 0.33652-0.11218 0.63332-0.22441 1.0797s-0.33622 1.0435-0.42966 1.8006c-0.09344 0.75708-0.05688 1.673 0.69216 1.6158 0.74905-0.0572 2.2102-1.0848 3.3829-1.8938 1.1727-0.80904 2.0567-1.3995 2.4281-1.5919 0.37136-0.19247 0.23089 0.0122-0.20931 0.52106-0.44019 0.50885-1.1803 1.3223-1.5504 1.84s-0.37002 0.73766-0.21495 1.0274c0.15507 0.28968 0.4631 0.64899 0.61606 0.86242s0.15296 0.28124 0.18797 0.34898c0.03501 0.0677 0.10279 0.13551 0.29734 0.16824 0.19455 0.0327 0.5159 0.0327 0.71064 0.0679 0.19474 0.0352 0.26289 0.10336 0.39071-0.49746 0.12782-0.60082 0.3179-1.8702 0.41308-2.7611 0.09518-0.89085 0.09518-1.4035 0.09518-1.6965s0-0.3662 0.08791 0.30377 0.26341 2.0829 0.42499 2.8621c0.16157 0.77919 0.30723 0.92485 0.52032 1.1367 0.21309 0.21182 0.4936 0.4898 0.77573 0.44562 0.28213-0.0442 0.56842-0.40853 0.74819-0.84774 0.17977-0.43922 0.25304-0.95493 0.40098-1.362s0.37054-0.70384 0.48198-1.0368c0.11144-0.33294 0.11144-0.70394 0.2225-1.1868s0.33367-1.0764 0.48217-1.6326c0.1485-0.55617 0.2227-1.0756 0.33396-1.4473 0.11126-0.3717 0.25967-0.5943 0.33404-0.81602 0.07438-0.22172 0.07438-0.44432 0.1484-0.66781 0.07403-0.22349 0.22242-0.44608 0.3664-0.77425 0.14398-0.32816 0.28364-0.76276 0.27467-0.61563-9e-3 0.14713-0.16665 0.87569-0.4317 1.8726-0.26506 0.99695-0.63742 2.2625-0.89776 3.0061s-0.40874 0.96619-0.59429 1.4118c-0.18555 0.44562-0.40815 1.1134-0.70565 1.782-0.29749 0.66856-0.66991 1.3385-0.96743 1.9707s-0.52013 1.2264-0.63119 1.6316c-0.11106 0.40526-0.11106 0.62063-0.14839 0.84212-0.03733 0.22149-0.11153 0.44999 0.11107-0.23753 0.2226-0.68751 0.742-2.291 1.1722-3.2158 0.43017-0.92478 0.77022-1.1691 1.0815-1.0734 0.31129 0.0957 0.5925 0.52856 0.807 0.93052 0.2145 0.40197 0.3629 0.77298 0.43655 1.4772 0.07364 0.7042 0.07364 1.7421 0.23159 2.421 0.15795 0.67888 0.47157 0.99871 0.91827 0.90311s1.0286-0.6042 1.459-0.89573c0.43041-0.29153 0.70795-0.36573 1.2533-0.95869 0.5453-0.59297 1.3602-1.7055 1.6812-2.1269 0.32093-0.42143 0.14795-0.15193 0.02436 0.16891-0.12358 0.32085-0.19778 0.69185-0.64304 1.7484-0.44526 1.0565-1.2615 2.7993-1.4758 3.6932-0.2143 0.8939 0.17029 0.93957 0.61703 0.37822 0.44674-0.56135 0.95862-1.7305 1.2148-2.3854 0.25618-0.65489 0.25618-0.7967 0.32941-0.94199 0.07323-0.14529 0.2197-0.29176 0.29293-0.60964 0.07323-0.31789 0.07323-0.80949 0.11045-0.65095 0.03722 0.15854 0.11142 0.96703 0.6068 1.308 0.49539 0.341 1.4102 0.21726 1.8667 0.0498 0.45645-0.1675 0.45645-0.38134 0.53042-0.63735s0.22237-0.55281 0.2968-1.4745c0.07443-0.92171 0.07443-2.4697-0.48096-3.8372-0.55539-1.3676-1.6684-2.5548-2.3362-3.1496-0.66776-0.59479-0.89036-0.59479-1.224-0.7054s-0.77887-0.33321-1.0759-0.51825c-0.29703-0.18504-0.44543-0.33344-0.74088-0.40879-0.29546-0.0753-0.73796-0.0753-1.7731-0.11193-1.0351-0.0366-2.663-0.10987-3.6993-0.2203-1.0363-0.11043-1.4815-0.25883-1.9984-0.33349-0.51683-0.0747-1.1048-0.0747-1.694-0.18544-0.58922-0.11078-1.1801-0.33338-2.3694-0.4452-1.1893-0.11182-2.9764-0.11182-4.0853 0.0311-1.1088 0.14289-1.5376 0.42901-1.8903 0.60114-0.35272 0.17213-0.63058 0.23029-0.91018 0.28881" style="fill:none;stroke-width:.31679;stroke:#fff"/>
 </g>
</svg>
