<svg width="210mm" height="200mm" version="1.1" viewBox="0 0 210 200" xmlns="http://www.w3.org/2000/svg" xmlns:xlink="http://www.w3.org/1999/xlink">
 <defs>
  <linearGradient id="linearGradient2607" x1="184.89" x2="64.498" y1="128.37" y2="203.36" gradientTransform="matrix(.93937 0 0 .93937 20.918 1.6677)" gradientUnits="userSpaceOnUse">
   <stop style="stop-color:#fff" offset="0"/>
   <stop style="stop-color:#808080" offset="1"/>
  </linearGradient>
  <radialGradient id="radialGradient3149" cx="154.08" cy="57.888" r="43.719" fx="161.76" fy="50.389" gradientTransform="matrix(.7145 .020635 -.023606 .81738 45.356 7.3072)" gradientUnits="userSpaceOnUse">
   <stop style="stop-color:#fff" offset="0"/>
   <stop style="stop-color:#c6c6c6" offset="1"/>
  </radialGradient>
  <linearGradient id="linearGradient4305" x1="28.095" x2="90.662" y1="98.077" y2="149.46" gradientTransform="matrix(.84741 .20598 -.20598 .84741 32.933 26.783)" gradientUnits="userSpaceOnUse">
   <stop style="stop-color:#989898" offset="0"/>
   <stop style="stop-color:#fff" offset="1"/>
  </linearGradient>
  <radialGradient id="radialGradient5422" cx="57.457" cy="51.922" r="39.815" gradientTransform="matrix(.72559 .016188 -.017751 .79565 16.688 9.6801)" gradientUnits="userSpaceOnUse">
   <stop style="stop-color:#fff" offset="0"/>
   <stop style="stop-color:#bebebe" offset="1"/>
  </radialGradient>
 </defs>
 <path d="m155.13 27.696 5.0909 1.7079m-15.289 3.3667 4.2696-12.727a5.3697 5.3697 0 0 1 6.7987-3.383l20.363 6.8314a5.3697 5.3697 0 0 1 3.383 6.7987l-8.5393 25.454a5.3697 5.3697 0 0 1-6.7987 3.383l-20.363-6.8314a5.3697 5.3697 0 0 0-6.7987 3.383l-8.5393 25.454a5.3697 5.3697 0 0 0 3.383 6.7987l20.363 6.8314a5.3697 5.3697 0 0 0 6.7987-3.383l4.2696-12.727m-1.6261-37.36-33.091-11.101a5.3697 5.3697 0 0 0-6.7987 3.383l-8.5393 25.454a5.3697 5.3697 0 0 0 3.383 6.7987l15.273 5.1236m14.435-0.82122 33.091 11.101a5.3697 5.3697 0 0 0 6.7987-3.383l8.5393-25.454a5.3697 5.3697 0 0 0-3.383-6.7987l-15.273-5.1236m-28.098 41.548 5.0909 1.7078" fill="none" stroke="currentColor" style="stroke-width:5.3697;stroke:url(#radialGradient3149)"/>
 <g fill="currentColor">
  <path d="m90.058 181.11 0.41184-2.8985 19.862-11.48-0.12721 2.7338zm20.854-5.4951-0.49313-2.3757-25.162 14.551-0.41175 2.8981zm2.1207 5.3439-0.9617-2.1052-11.445 6.6201 0.0407 2.6369zm82.054-26.538c-7.5126 12.428-24.047 18.548-35.667 7.7135 0.32376 6.0525-1.3446 12.13-4.709 16.988-7.9711 11.511-25.465 15.586-35.578 2.4904-9.2605-12.802-3.0999-27.573 2.1864-33.457 8.4885-9.1997 20.883-11.304 29.857-3.9137l-9.4349 9.3325c-3.079-2.605-10.865-1.2656-13.74 5.151-4.9964 9.2693 2.1043 21.237 12.514 17.612 5.2287-2.1865 7.1099-6.48 7.4253-11.595l-12.057 6.9958-0.95027-10.604 18.093-10.446c-4.9273-26.631 26.193-43.308 40.768-25.236 5.1803 6.423 8.2953 17.385 1.294 28.968m-25.831-21.555c-7.3254 6.6291-5.1443 15.222-1.1198 19.21 4.2826 4.2448 11.512 4.4755 16.441-2.5825 7.8992-11.311-4.5698-26.357-15.321-16.628" style="fill:url(#linearGradient2607)"/>
  <path d="m21.228 104.37c1.0091-4.1514 5.1973-6.7017 9.3487-5.6927l53.719 13.057c4.1514 1.0091 6.7017 5.1973 5.6927 9.3487l-2.0892 8.595c-1.0446 4.2975-7.4909 2.7306-6.4463-1.5669l2.0892-8.595c0.14427-0.59338-0.21983-1.1914-0.81322-1.3356l-53.719-13.057c-0.59339-0.14423-1.1914 0.2199-1.3355 0.81331l-13.057 53.719c-0.14414 0.59301 0.22016 1.1914 0.81322 1.3356l58.017 14.102c4.2975 1.0446 2.7307 7.4909-1.5669 6.4463l-58.017-14.102c-4.1536-1.0096-6.7022-5.1952-5.6927-9.3487zm39.379 29.024c1.7801 0.43268 2.8724 2.2265 2.4397 4.0066l-4.1783 17.19c-1.0498 4.319-3.0225 7.2667-5.9629 8.7094-2.8068 1.3796-5.7024 0.97157-7.6535 0.49733-4.2975-1.0446-2.7306-7.4909 1.5669-6.4463 1.4869 0.36143 2.4822 0.33034 3.1644-5e-3 0.54745-0.26739 1.6607-1.121 2.4389-4.3227l4.1783-17.19c0.43268-1.7801 2.2265-2.8724 4.0066-2.4397m12.137 6.7279c2.3166-1.7035 5.4869-2.444 9.3503-1.5049 3.5884 0.87223 5.9971 2.7594 7.3546 5.133 2.0663 3.8051-3.5346 7.0021-5.7602 3.2878-0.35156-0.61339-1.1414-1.4835-3.1612-1.9744-2.1488-0.52229-3.2697-0.0301-3.8579 0.4049-0.58959 0.44259-1.0189 1.0652-1.2231 1.7736-0.10865 0.44699-0.12856 1.3341 0.27249 2.1371 0.32718 0.65752 1.0886 1.6072 3.2416 2.1306 0.32661 0.0794 0.62888 0.20277 0.9033 0.36577 2.7511 1.0965 4.5949 2.892 5.6385 5.0026 1.2023 2.4314 1.1908 4.9501 0.77719 6.6519-0.41366 1.7018-1.5596 3.9448-3.7438 5.553-2.3166 1.7035-5.4869 2.444-9.3503 1.5049-3.5884-0.87222-5.9971-2.7594-7.3546-5.133-2.069-3.8059 3.5353-7.0048 5.7602-3.2879 0.35156 0.61338 1.1414 1.4835 3.1612 1.9744 2.1488 0.52229 3.2697 0.0301 3.8579-0.40491 0.58959-0.4426 1.0189-1.0652 1.2231-1.7736 0.10865-0.44699 0.12856-1.3341-0.27249-2.1371-0.32717-0.65753-1.0886-1.6072-3.2416-2.1306-0.31751-0.0767-0.62193-0.19985-0.9033-0.36578-2.7501-1.1007-4.595-2.8918-5.6385-5.0025-1.0153-2.0623-1.2897-4.4112-0.77719-6.652 0.41366-1.7018 1.5596-3.9448 3.7438-5.553" style="fill:url(#linearGradient4305);stroke-width:4.4227"/>
  <path d="m93.266 35.764-3.9434-0.61713c-0.14526-0.27632-0.28628-0.54262-0.43422-0.80936l1.6248-3.6392a1.1431 1.1431 0 0 0-1.0901-1.6079l-3.9832 0.16091c-0.19101-0.23676-0.38323-0.47639-0.5802-0.70727l0.89049-3.8915a1.1431 1.1431 0 0 0-1.3839-1.3642l-3.8935 0.94174c-0.23354-0.19351-0.46503-0.38619-0.70249-0.57298l0.11488-4.0016a1.1431 1.1431 0 0 0-1.6239-1.0688l-3.645 1.691q-0.39069-0.20993-0.78325-0.41231l-0.67812-3.9608a1.1447 1.1447 0 0 0-1.8011-0.73246l-3.247 2.3705q-0.42157-0.13108-0.84871-0.25136l-1.4302-3.755a1.1431 1.1431 0 0 0-1.912-0.3751l-2.7075 2.9531c-0.30043-0.03196-0.60273-0.05636-0.903-0.07993l-2.1311-3.3918a1.1431 1.1431 0 0 0-1.9432 0.01111l-2.0844 3.406c-0.30221 0.02784-0.60567 0.06473-0.90914 0.10159l-2.7403-2.8952a1.1431 1.1431 0 0 0-1.9029 0.39076l-1.3763 3.7403c-0.29214 0.08773-0.58327 0.18187-0.87583 0.27662l-3.2517-2.3149a1.1431 1.1431 0 0 0-1.7912 0.75552l-0.61713 3.9434c-0.2763 0.1453-0.54261 0.28628-0.80937 0.43418l-3.6392-1.6248a1.1431 1.1431 0 0 0-1.6079 1.0901l0.16091 3.9832c-0.23761 0.19301-0.47783 0.38383-0.70953 0.58284l-3.8901-0.89109a1.1431 1.1431 0 0 0-1.3642 1.3839l0.94113 3.8921c-0.19351 0.23353-0.38619 0.46503-0.57442 0.70308l-3.9957-0.10893a1.1431 1.1431 0 0 0-1.0658 1.6311l1.6918 3.6429c-0.14159 0.26059-0.28544 0.52381-0.41518 0.78447l-3.9648 0.66461a1.1447 1.1447 0 0 0-0.73246 1.8011l2.3705 3.247c-0.08862 0.28213-0.17112 0.56674-0.2522 0.85075l-3.7536 1.4296a1.154 1.154 0 0 0-0.71578 0.85217 1.1431 1.1431 0 0 0 0.34927 1.0562l2.9425 2.7103c-0.03195 0.30042-0.05492 0.60212-0.07933 0.90442l-3.391 2.1291a1.1431 1.1431 0 0 0 0.01109 1.9432l3.4079 2.0769c0.02848 0.30363 0.06594 0.60854 0.10136 0.91262l-2.8952 2.7403a1.1431 1.1431 0 0 0 0.39076 1.9029l3.7403 1.3763c0.08777 0.29212 0.18187 0.58327 0.27658 0.87584l-2.3166 3.2558a1.1431 1.1431 0 0 0 0.75552 1.7912l3.9434 0.61713c0.14524 0.27632 0.28566 0.54119 0.43361 0.80792l-1.6248 3.6392a1.1431 1.1431 0 0 0 1.0901 1.6079l3.9832-0.16091c0.19305 0.23759 0.38323 0.47639 0.58224 0.7081l-0.89048 3.8916a1.1431 1.1431 0 0 0 1.3839 1.3642l3.8935-0.94174c0.23293 0.19208 0.46503 0.38619 0.70188 0.57155l-0.10712 4a1.1431 1.1431 0 0 0 0.51263 0.98727 1.1089 1.1089 0 0 0 1.1099 0.08214l3.6464-1.6916q0.38782 0.21114 0.78182 0.41293l0.67095 3.9638a1.1447 1.1447 0 0 0 1.8011 0.73246l3.247-2.3705q0.423 0.13048 0.85014 0.25076l1.4288 3.7556a1.1431 1.1431 0 0 0 1.909 0.36794l2.712-2.9466c0.29899 0.03255 0.60069 0.05552 0.90156 0.08053l2.1311 3.3918a1.1415 1.1415 0 0 0 1.9426-0.01253l2.0783-3.4085c0.3028-0.02644 0.6071-0.06533 0.91118-0.10075l2.7403 2.8952a1.1447 1.1447 0 0 0 1.9029-0.39076l1.3763-3.7403c0.29213-0.08775 0.5847-0.18248 0.87584-0.27658l3.2548 2.3102a1.1431 1.1431 0 0 0 1.7912-0.75552l0.61713-3.9434c0.27632-0.14525 0.54261-0.28628 0.80875-0.43565l3.6398 1.6263a1.1447 1.1447 0 0 0 1.6079-1.0901l-0.16091-3.9832c0.23759-0.19305 0.47639-0.38323 0.7081-0.58224l3.8901 0.89109a1.1415 1.1415 0 0 0 1.3648-1.3825l-0.94174-3.8935c0.19208-0.23293 0.38619-0.46503 0.57298-0.70248l4.0016 0.11489a1.1431 1.1431 0 0 0 1.0688-1.6239l-1.691-3.645q0.20993-0.39068 0.41232-0.78326l3.9624-0.67035a1.1447 1.1447 0 0 0 0.73246-1.8011l-2.3705-3.247q0.13108-0.42157 0.25137-0.84871l3.755-1.4302a1.1244 1.1244 0 0 0 0.71578-0.85217 1.1431 1.1431 0 0 0-0.34784-1.0568l-2.946-2.7105c0.03195-0.30042 0.05492-0.60212 0.07993-0.903l3.3918-2.1311a1.1431 1.1431 0 0 0-0.0111-1.9432l-3.4085-2.0783c-0.02848-0.30363-0.06533-0.6071-0.10219-0.91058l2.8952-2.7403a1.1431 1.1431 0 0 0-0.39076-1.9029l-3.7403-1.3763c-0.08775-0.29213-0.18187-0.58327-0.27598-0.87441l2.3102-3.2548a1.1431 1.1431 0 0 0-0.75552-1.7912zm-13.836 27.624a2.1633 2.1633 0 0 0-1.7218 2.5289l1.0612 5.5733a29.162 29.162 0 0 1-22.451 9.3446l-3.2502-4.6483a2.1571 2.1571 0 0 0-3.0042-0.53556l-4.1068 2.8732a29.142 29.142 0 0 1-3.4911-1.77l21.949-9.2579c0.24647-0.10396 0.39661-0.21623 0.29869-0.44838l-3.2753-7.7654c-0.09489-0.22498-0.2831-0.20298-0.52958-0.09902l-6.4241 2.7096-2.069-4.9254 6.9471-2.9302c0.63195-0.26655 3.4678-1.2466 5.8325 1.9066 0.73004 0.96647 2.8268 4.2327 3.716 5.1844 0.94723 1.0892 3.6915 2.9092 5.4827 2.1537l11.328-4.7779a29.13 29.13 0 0 1-1.2705 3.9269zm5.7775 3.3848a2.3702 2.3702 0 1 1-3.1122-1.2597l0.06305-0.02659a2.3686 2.3686 0 0 1 3.042 1.2893zm-32.372 13.539a2.3702 2.3702 0 1 1-3.107-1.2636l0.06449-0.0272a2.3717 2.3717 0 0 1 3.0354 1.2938zm-23.413-20.253 3.8221-4.0765a2.1587 2.1587 0 0 0-0.0962-3.0534l-1.8901-1.7718 3.806-1.6053 7.2367 17.157-7.6808 3.2397a29.184 29.184 0 0 1-5.1977-9.8899m-3.7931-4.4868a2.3702 2.3702 0 0 1 1.2607-3.1058l0.06592-0.0278a2.3702 2.3702 0 1 1-1.3244 3.131zm23.715-5.8688-2.1276-5.0644 9.0651-3.8235c0.47002-0.19825 3.5338-0.85416 4.4313 1.2738 0.74283 1.7612-1.1673 3.3112-2.9571 4.0661zm31.671 0.842c-1.336 0.75426-3.2053 0.65652-3.7624-0.11617-2.792-4.3064-4.5868-4.7158-7.4874-5.5179 1.9803-2.8524 3.7198-6.572 2.2922-9.9567-1.5425-3.657-5.0201-4.9027-7.2037-5.3135-3.0666-0.56328-5.8552 0.23654-6.5703 0.53815l-28.502 12.022a29.159 29.159 0 0 1 11.453-14.822l4.8501 2.1066a2.1493 2.1493 0 0 0 2.8352-1.1216l2.252-5.1697a29.162 29.162 0 0 1 23.922 5.3429l-0.12727 6.9016a2.1773 2.1773 0 0 0 2.1239 2.1981l5.8833 0.1061a29.102 29.102 0 0 1 2.0241 4.6388l-2.7628 1.1653c-0.2737 0.11544-0.30872 0.34457-0.19629 0.61111l0.5331 1.2639c1.2515 2.9746-0.14704 4.3375-1.5562 5.1226m-37.683-25.713a2.3702 2.3702 0 0 1 1.2603-3.0989l0.06449-0.0272a2.3702 2.3702 0 1 1-1.3247 3.1261m37.502 10.141a2.3702 2.3702 0 1 1-1.8423-4.3678l0.06305-0.02659a2.3704 2.3704 0 0 1 1.7792 4.3943" style="fill:url(#radialGradient5422);stroke-width:.15552"/>
 </g>
</svg>
