<svg version="1.1" viewBox="0 0 210 210" xmlns="http://www.w3.org/2000/svg" xmlns:xlink="http://www.w3.org/1999/xlink">
 <defs>
  <symbol id="Buffer">
   <title>Buffer</title>
   <path d="m25 30 50 20-50 20v-20z"/>
  </symbol>
  <symbol id="Cashier">
   <title>Cashier</title>
   <g style="fill:none;stroke-width:6">
    <circle cx="36" cy="36" r="24"/>
    <path d="m45 30c0-4-4-6-9-6s-9 2-9 6 4 5.5 9 6 10 1 10 6-5 6-10 6-9-3-9-7m9-24v38"/>
   </g>
  </symbol>
 </defs>
 <g transform="matrix(1.1294 0 0 1.1294 -13.333 4.0109)">
  <rect x="17.305" y="27.923" width="174.93" height="122.99" ry=".62191" style="fill:none;stroke-linecap:round;stroke-linejoin:round;stroke-width:2.0308;stroke:#fff"/>
  <text transform="scale(.94056 1.0632)" x="27.911774" y="79.273987" style="fill:none;font-family:sans-serif;font-size:20.678px;letter-spacing:-1.727px;line-height:0;stroke-width:1.1918;stroke:#ffffff" xml:space="preserve"><tspan x="27.911774" y="79.273987" style="fill:none;letter-spacing:-1.727px;line-height:0;stroke-width:1.1918;stroke:#ffffff">HERO TEXT</tspan></text>
  <path d="m16.289 45.286h175.95" style="fill:none;stroke-width:1.065;stroke:#fff"/>
  <path d="m186.44 38.082c-1.2682-0.5844-2.5364-1.1688-3.6606-1.5497-1.1242-0.38091-2.1043-0.55833-2.6831-0.73575-0.57878-0.17742-0.7562-0.35484-1.174-0.44355s-1.0758-0.08871-1.6846-0.08871c-0.60873 0-1.1681 0-1.6908 0.081s-1.0087 0.243-1.2517 0.40607c-0.243 0.16307-0.243 0.3272-0.31719 0.48346-0.0742 0.15626-0.22257 0.30463-0.453 0.46088-0.23042 0.15625-0.54289 0.32038-0.76214 0.55305-0.21925 0.23267-0.34528 0.53388-0.49202 0.68449s-0.31417 0.15061-0.46882 0.22154c-0.15464 0.07093-0.2965 0.21278-0.65444 0.28372s-0.93196 0.07093-1.9932 0.07093h-4.0902-3.8298c-0.93653 0-1.3969 0-1.8023-0.0876-0.40541-0.0876-0.75581-0.2628-1.0187-0.3504-0.26286-0.0876-0.43817-0.0876-0.60642-0.16819-0.16825-0.08059-0.32944-0.24178-0.55978-0.32238-0.23034-0.08059-0.52982-0.08059-0.85402-0.25505-0.3242-0.17446-0.67312-0.52338-0.92177-0.69784s-0.39704-0.17446-0.55329-0.25651c-0.15625-0.08205-0.32036-0.24616-0.5776-0.32821-0.25723-0.08205-0.60759-0.08205-1.0378-0.25836-0.43024-0.1763-0.94036-0.5289-1.2371-0.70521-0.29671-0.1763-0.38007-0.1763-0.80525 0.14603-0.42517 0.32233-1.1922 0.967-1.8816 1.6839-0.68936 0.71689-1.3011 1.506-1.7766 2.2476s-0.81486 1.4357-1.3739 1.7828-1.3377 0.34705-2.3448 0.34705c-1.0071 0-2.2426 0-2.9491-0.08871-0.70647-0.08871-0.88389-0.26613-1.4095-0.35484-0.5256-0.08871-1.3994-0.08871-1.9001-0.15254-0.50072-0.06383-0.62838-0.19149-0.76346-0.25532-0.13509-0.06383-0.27759-0.06383-0.5179-0.23289-0.24031-0.16906-0.57844-0.50719-1.0114-0.85255s-0.96072-0.69796-1.5794-1.2291c-0.61873-0.53114-1.3284-1.2408-1.772-1.6844-0.44355-0.44355-0.62097-0.62097-0.8871-0.70968s-0.62097-0.08871-0.9758-0.08871" style="fill:none;font-variation-settings:normal;stop-color:#000000;stroke-linecap:round;stroke-linejoin:round;stroke-width:1.031;stroke:#fff"/>
  <path transform="matrix(.78688 0 0 .56409 6.7425 40.169)" d="m27.299 111.53c0.076-1.1878 0.15199-2.3756 0.45873-3.3279 0.30674-0.95223 0.84423-1.6689 1.3637-2.278 0.51949-0.60907 1.021-1.1106 1.3339-1.3613s0.43729-0.25075 0.65692-0.33529c0.21962-0.0845 0.5345-0.25363 0.97037-0.33818 0.43587-0.0845 0.99271-0.0845 1.4242-0.0845h0.97629c0.23878 0 0.41029 0 0.57876 0.0827s0.3339 0.24814 0.55794 0.40152c0.22403 0.15337 0.50668 0.2947 1.0685 0.87461 0.56186 0.57992 1.403 1.5984 1.9929 2.4462 0.58998 0.84775 0.92884 1.5248 1.1641 1.9291 0.23525 0.40432 0.36688 0.53595 0.72938 0.51306 0.3625-0.0229 0.95586-0.20031 1.3412-0.46644s0.56281-0.62097 0.73858-0.88545 0.34991-0.43861 0.70146-0.79016c0.35155-0.35155 0.88052-0.88052 1.4111-1.3224 0.53061-0.44191 1.0629-0.79675 1.5064-1.0629s0.79839-0.44355 1.1532-0.79839c0.35484-0.35483 0.70968-0.88709 1.1282-1.1532s0.9008-0.26613 1.5788-0.17742c0.67802 0.0887 1.5518 0.26613 2.0723 0.522 0.52048 0.25588 0.68764 0.5902 0.94864 0.93479 0.261 0.34458 0.61584 0.69942 0.88197 1.0543s0.44355 0.70968 0.70968 1.0645c0.26613 0.35484 0.62097 0.70968 0.88136 1.053 0.26039 0.34336 0.42633 0.67523 0.94448 1.1876 0.51816 0.51241 1.3885 1.2054 1.9746 1.3206 0.58611 0.11519 0.88795-0.34739 1.2163-0.7561 0.32834-0.40871 0.68318-0.76355 0.8606-1.4621s0.17742-1.7408 0.35484-2.4393 0.53226-1.0534 0.79728-2.0175c0.26502-0.96412 0.44023-2.5375 0.52783-3.2745 0.0876-0.73697 0.0876-0.63749 0.0876-0.33197s0 0.81709-0.08871 1.8713c-0.08871 1.0542-0.26613 2.651-0.62871 3.4518-0.36258 0.80089-0.91033 0.80589-1.2729 0.80839-0.36258 2e-3 -0.54 2e-3 -0.71742-0.0862-0.17742-0.0887-0.35484-0.26613-0.53226-0.44355-0.17742-0.17742-0.35484-0.35484-0.96206-0.96206-0.60722-0.60723-1.6443-1.6443-2.3402-2.2515-0.69593-0.60723-1.0508-0.78465-1.1488-0.79395-0.09801-9e-3 0.0608 0.1495 0.75228 0.49678 0.69148 0.34728 1.9156 0.88302 2.9767 1.2396 1.061 0.35659 1.959 0.534 2.7628 0.80013s1.5135 0.62097 2.7554 0.8871c1.2419 0.26613 3.0161 0.44355 4.0806 0.53226 1.0645 0.0887 1.4194 0.0887 1.8618 0.26613 0.44244 0.17742 0.97248 0.53225 1.3016 0.77381 0.32915 0.24155 0.45741 0.36981 0.56915 0.48155 0.11174 0.11174 0.20701 0.20701 0.25463 0.33673 0.04762 0.12972 0.04762 0.29391 0.22504 0.55342 0.17742 0.25952 0.53226 0.61436 0.70968 1.4002s0.17742 2.0025 0.09579 2.6925-0.24489 0.85326-0.40815 1.0982c-0.16326 0.24489-0.32651 0.5714-0.49685 0.73465-0.17034 0.16326-0.34776 0.16326-0.85404 0.16326h-1.8318c-0.49033 0-0.63586 0-0.78286-0.96133-0.14699-0.96133-0.29545-2.884-0.28868-4.2734 0.0068-1.3895 0.16877-2.2457 0.64123-2.6738 0.47246-0.42813 1.2554-0.42813 2.231-0.42813h3.518 4.2764 3.0964c0.70968 0 1.0645 0 1.8076-0.1215 0.74303-0.12149 1.8743-0.36449 2.3563-0.56957 0.48203-0.20508 0.31488-0.37224-0.01519-0.6174-0.33006-0.24517-0.82303-0.56834-1.2469-0.81863-0.4239-0.2503-0.77874-0.42772-1.3286-0.51643-0.54986-0.0887-1.2947-0.0887-2.0063-3e-3 -0.71158 0.0857-1.3899 0.25721-1.8177 0.60907-0.42786 0.35187-0.60528 0.88413-0.77607 1.2324s-0.33497 0.5124-0.24788 0.84576c0.08709 0.33336 0.42545 0.83589 0.73563 1.1577 0.31018 0.32177 0.59219 0.46278 0.81746 0.7018s0.39378 0.57605 0.56564 0.74457 0.34705 0.16852 0.99421 0.16852h2.5166c0.7503 0 1.1318 0 1.4713-0.1488 0.33954-0.14881 0.63715-0.44642 0.85702-0.59522 0.21987-0.14881 0.362-0.14881 0.65268-0.36843s0.72992-0.65885 1.0033-0.87847 0.381-0.21962 0.94039-0.21962c0.55939 0 1.5706 0 2.1594 0.0887 0.58881 0.0887 0.75524 0.26612 1.1933 0.70967s1.1477 1.1532 1.6226 1.6281c0.47489 0.47488 0.71498 0.71497 0.88378 0.68874 0.1688-0.0262 0.26632-0.31878 0.488-0.72668s0.5675-0.93115 0.82913-1.4589c0.26162-0.52776 0.43905-1.06 0.70517-1.5036 0.26613-0.44355 0.62097-0.79839 0.79838-1.3306s0.17742-1.2419 0.35484-1.8629c0.17742-0.62097 0.53226-1.1532 0.8871-1.7742 0.35484-0.62096 0.70968-1.3306 0.97581-1.8629s0.44355-0.8871 0.62097-1.3306c0.17742-0.44355 0.35484-0.97581 0.61188-1.0736 0.25703-0.0978 0.59369 0.23886 0.84618 0.93035 0.2525 0.6915 0.42082 1.7378 0.50499 4.7416 0.0842 3.0037 0.0842 7.9648 0.0842 10.712 0 2.7467 0 3.2789 0.12821 3.801 0.12822 0.52204 0.38465 1.0339 0.64741 1.2898 0.26276 0.25591 0.53187 0.25591 0.75217 0.0815 0.22029-0.17446 0.39179-0.52338 0.56624-0.87526 0.17446-0.35187 0.35188-0.70671 0.61801-1.1503s0.62097-0.9758 0.79839-1.3295c0.17742-0.3537 0.17742-0.52885 0.26499-0.79271 0.0876-0.26386 0.26273-0.61643 0.79385-1.4137 0.53113-0.79725 1.4182-2.0392 1.8618-2.7416 0.44355-0.70241 0.44355-0.86528 0.5055-1.0891 0.0619-0.22379 0.18584-0.50848 0.24778-0.71068 0.062-0.20219 0.062-0.32189-0.0249-0.42103-0.0869-0.0991-0.26069-0.17772-1.005-0.21701-0.74432-0.0393-2.0592-0.0393-5.4859-0.0393h-14.504" style="fill:none;font-variation-settings:normal;stop-color:#000000;stroke-linecap:round;stroke-linejoin:round;stroke-width:1.8477;stroke:#fff"/>
  <path transform="matrix(1.0014 0 0 .83228 -.75343 15.763)" d="m31.381 117.64c1.2383-0.28632 2.4766-0.57265 3.2599-0.71581 0.78334-0.14316 1.1117-0.14316 1.3487-0.14316s0.3826 0 0.51352 0.0581c0.13092 0.0581 0.24715 0.17434 0.52092 0.3836 0.27377 0.20926 0.70507 0.51155 0.99163 0.7336s0.42837 0.36386 0.57895 0.3195c0.15059-0.0444 0.30996-0.27492 0.30974-0.47009-2.18e-4 -0.19518-0.16002-0.35499-0.6398-0.43489s-1.2795-0.0799-1.7283-0.031-0.54642 0.14654-0.59527 0.23684c-0.04885 0.0903-0.04885 0.17315-0.21296 0.46741-0.16411 0.29425-0.49234 0.7999-0.65645 1.2932-0.16412 0.49329-0.16412 0.97424-0.24941 1.3-0.0853 0.32577-0.25589 0.49636-0.41142 0.65188-0.15553 0.15553-0.29599 0.29599-0.41105 0.36622-0.11506 0.0702-0.20474 0.0702-0.50905 0.0702s-0.82327 0-1.4243-0.0821c-0.601-0.082-1.2841-0.24616-1.412-0.92709-0.12791-0.68094 0.29932-1.8787 1.1701-2.3783 0.87074-0.49955 2.185-0.30089 3.3699-0.20156 1.1849 0.0993 2.2405 0.0993 2.921 0.0993 0.68057 0 0.98616 0 1.3031 0.0876 0.31693 0.0876 0.6452 0.2628 0.89805 0.3504s0.43027 0.0876 0.6964 0.26502c0.26613 0.17742 0.62097 0.53226 1.1655 0.70968s1.2789 0.17742 2.0009 0.35484c0.72199 0.17742 1.4317 0.53225 1.8736 0.79676 0.44192 0.2645 0.61609 0.43867 0.76387 0.52576 0.14779 0.0871 0.26919 0.0871 0.45435 0.0871 0.18516 0 0.43406 0 0.64611-0.0876s0.38723-0.26277 0.65224-0.52778c0.26501-0.26501 0.61985-0.61985 1.1423-1.1423 0.52246-0.52245 1.2125-1.2125 1.6463-1.735 0.43375-0.52245 0.61117-0.8773 0.82024-1.1349 0.20907-0.25765 0.44979-0.4181 0.8941-0.15736 0.44431 0.26074 1.0922 0.94269 1.5944 1.6409 0.50215 0.69819 0.85858 1.4126 1.4871 1.7698s1.5292 0.35721 3.1597 0.35721h5.3483c1.3575 0 1.7124 0 2.4221 0.26613 0.70968 0.26613 1.7742 0.79838 3.0161 0.44355 1.2419-0.35484 2.6613-1.5968 3.4944-2.2177s1.0801-0.62097 1.3143-0.67638c0.23428-0.0554 0.45591-0.16624 0.83692-0.22165 0.38101-0.0554 0.92138-0.0554 2.1082-0.0554h4.8021 4.7201c1.2076 0 1.8921 0 2.3118-0.24681s0.57475-0.74043 0.65225-1.0545c0.0775-0.31408 0.0775-0.44861-0.0042-0.59756-0.08168-0.14894-0.24503-0.31229-0.39448-0.39396-0.14946-0.0817-0.28501-0.0817-0.5214 0.26435-0.23639 0.34602-0.5736 1.0381-1.0083 1.9164-0.43474 0.87828-0.967 1.9428-1.4993 2.7412-0.53226 0.79839-1.0645 1.3306-1.4194 1.8629-0.35484 0.53226-0.53226 1.0645-0.70968 1.5081-0.17742 0.44355-0.35484 0.79839-0.44355 1.1532s-0.08871 0.70968-0.0066 1.324c0.08209 0.61435 0.24628 1.4882 0.37728 1.9252 0.131 0.43693 0.22883 0.43693 0.34308 0.43693 0.11425 0 0.24492 0 0.57409-0.0887 0.32918-0.0887 0.85686-0.26613 1.2981-0.53226 0.44126-0.26613 0.7961-0.62097 1.3223-0.97089 0.52624-0.34992 1.2239-0.69492 1.6555-0.95022s0.59722-0.4209 0.68002-1.0073 0.0828-1.5937 0.26022-2.8831c0.17742-1.2894 0.53226-2.8609 0.71849-3.9927 0.18623-1.1318 0.20385-1.8238 0.08028-2.1699-0.12358-0.34603-0.38835-0.34603-0.6008-0.34603s-0.37255 0-0.53426 0.0816c-0.16171 0.0817-0.32501 0.24496-0.58297 0.32662-0.25796 0.0816-0.61058 0.0816-1.1406 0.25796-0.53004 0.1763-1.2375 0.52892-1.8541 0.79231-0.61659 0.26338-1.1423 0.43753-1.6713 0.61331-0.52899 0.17579-1.0612 0.35321-1.415 0.44192-0.35371 0.0887-0.52888 0.0887-0.96905 0.35259-0.44017 0.26387-1.1453 0.79163-1.6695 1.0555s-0.86714 0.26388-1.1152 0.26388-0.40106 0-0.65389 0.17631-0.60544 0.52892-1.015 0.70522c-0.40954 0.17631-0.87601 0.17631-1.1938 0.26083-0.31776 0.0845-0.48679 0.25355-0.80396 0.33806-0.31717 0.0845-0.78249 0.0845-1.7448 0.0845h-3.6837-3.0361-1.3249c-0.2604 0-0.42636 0-0.56939-0.0601-0.14304-0.0601-0.26316-0.18018-0.49682-0.32895-0.23366-0.14877-0.58086-0.32618-0.75446-0.49942-0.1736-0.17324-0.1736-0.34229-0.1736-0.49038v-1.2042c0-0.92898 0-2.6598-0.08054-3.7832s-0.24161-1.6393-0.52229-1.8972c-0.28068-0.25796-0.68096-0.25796-1.4626-0.16925-0.78162 0.0887-1.9446 0.26613-2.7035 0.62097-0.75889 0.35483-1.1137 0.88709-1.4686 1.3306-0.35484 0.44355-0.70968 0.79839-1.2419 1.3306-0.53226 0.53225-1.2419 1.2419-1.7547 1.7547-0.51278 0.51277-0.82866 0.82865-1.0753 1.1552-0.24665 0.32655-0.42407 0.66378-0.6902 1.0098-0.26613 0.34603-0.62097 0.70087-0.88198 0.96188s-0.42818 0.42818-0.76879 0.51177c-0.34061 0.0836-0.85465 0.0836-1.6317 0.0836h-3.0413c-1.2242 0-2.6324 0-3.8028-0.0876s-2.1031-0.26278-2.8563-0.6372c-0.75317-0.37442-1.3268-0.94808-1.6137-1.317-0.28682-0.36893-0.28682-0.53313-0.5497-0.8781-0.26287-0.34496-0.78861-0.8707-1.0515-1.2009-0.26287-0.33025-0.26287-0.465-0.35158-0.78065-0.08871-0.31565-0.26613-0.8122-0.52647-1.2321-0.26035-0.41991-0.60362-0.76318-0.9469-1.1065" style="fill:none;font-variation-settings:normal;stop-color:#000000;stroke-linecap:round;stroke-linejoin:round;stroke:#fff"/>
  <rect x="84.359" y="126.42" width="17.351" height="8.2894" ry=".28479" style="fill:none;stroke-linecap:round;stroke-linejoin:round;stroke-width:.45968;stroke:#fff"/>
  <use transform="matrix(.13013 0 0 .13013 89.794 123.55)" style="fill:#ffffff;stroke-width:2;stroke:#000000" xlink:href="#Buffer"/>
  <use transform="matrix(.21344 0 0 .21344 18.694 29.152)" style="fill:#000000;stroke:#ffffff" xlink:href="#Cashier"/>
 </g>
 <path d="m136.49 159.71c-0.20593-0.20592-0.3744-2.0002-0.3744-3.9874 0-3.9805 0.0935-4.1166 6.3942-9.3076l2.6175-2.1565-0.15344-9.6371c-0.14725-9.2481-0.2002-9.6438-1.3115-9.8028-0.63694-0.0911-8.9767 2.4108-18.533 5.5598-9.5562 3.149-17.88 5.7507-18.498 5.7816-1.0143 0.0507-1.1395-0.35167-1.2909-4.1491-0.27797-6.9703-2.4841-5.0151 23.474-20.805 5.7143-3.4758 11.59-7.068 13.057-7.9827l2.6676-1.6631 3e-3 -13.28c3e-3 -14.123 0.36012-16.783 2.5448-18.967 2.3838-2.3838 6.9089-1.2028 8.0617 2.1041 0.38664 1.1091 0.62248 6.7404 0.62248 14.863 0 7.1925 0.22637 13.673 0.50303 14.4 0.35688 0.93868 5.8636 4.5473 18.954 12.421 10.148 6.1039 18.956 11.474 19.574 11.934 0.98134 0.7307 1.1232 1.4895 1.1232 6.008v5.1717l-1.404-0.19088c-0.77219-0.10499-9.1094-2.705-18.527-5.7778s-17.631-5.5141-18.252-5.4251c-1.0033 0.14382-1.1602 0.69287-1.4097 4.9354-0.15444 2.6255-0.20061 7.0976-0.10256 9.9379l0.17822 5.1643 4.1314 3.1644c2.2723 1.7404 4.277 3.5439 4.455 4.0077 0.17798 0.46379 0.32358 2.4653 0.32358 4.4477 0 4.355 0.061 4.3393-7.4926 1.9197-2.8928-0.92664-6.0919-1.6848-7.1091-1.6848s-4.2163 0.75816-7.109 1.6848c-5.4642 1.7503-6.4895 1.9391-7.1182 1.3104z" style="fill:#fff"/>
</svg>
